<svg width="124" height="70" viewBox="0 0 124 70" fill="none" xmlns="http://www.w3.org/2000/svg">
<path d="M15.7156 13.0638C13.2668 30.834 10.7007 48.4868 8.26031 66.2654C6.52438 66.2654 4.79684 66.2654 3.06091 66.2654C5.50966 48.5287 8.05065 30.7669 10.5329 13.0638H15.7156Z" fill="#ED2127"/>
<path d="M44.1864 41.585H51.5578C52.6312 41.585 53.4195 41.5431 53.9059 41.4508C54.6858 41.3083 55.3819 40.998 55.9857 40.5116C57.1178 39.6059 57.6797 38.3144 57.6797 36.6288C57.6797 34.5323 56.8159 33.1821 55.1051 32.5951C56.405 32.0248 57.0591 30.9095 57.0591 29.2574C57.0591 27.5718 56.4805 26.3558 55.3148 25.6094C54.4259 25.0392 52.9918 24.7457 50.9875 24.7457H44.1864V41.585ZM50.8031 27.5466C51.4991 27.5466 52.0023 27.5886 52.3126 27.6808C53.1763 27.924 53.6124 28.5362 53.6124 29.5341C53.6124 30.8508 52.6899 31.5133 50.8534 31.5133H47.6247V27.555H50.8031V27.5466ZM50.9875 34.2136C52.0777 34.2136 52.8493 34.3562 53.277 34.6329C53.9227 35.0522 54.2414 35.6644 54.2414 36.4779C54.2414 37.241 53.9982 37.8029 53.495 38.1551C53.0002 38.5073 52.2287 38.6918 51.1888 38.6918H47.6247V34.2136H50.9875ZM59.6588 41.585H62.9378V35.7734C62.9378 34.7503 62.9965 33.9788 63.1223 33.4589C63.2397 32.9389 63.5332 32.4944 63.9776 32.1338C64.4976 31.7145 65.3362 31.5049 66.4767 31.5049H67.1308V28.4272C66.8373 28.4104 66.5689 28.402 66.3258 28.402C65.4033 28.402 64.6905 28.5278 64.1873 28.7794C63.6841 29.031 63.2313 29.4922 62.8287 30.1715V28.553H59.6504V41.585H59.6588ZM68.4307 27.4628H71.7096V24.4438H68.4307V27.4628ZM68.4307 41.585H71.7096V28.5614H68.4307V41.585ZM74.6867 28.5614H72.8418V31.1694H74.6867V36.7546C74.6867 38.3228 74.7203 39.3124 74.7873 39.7317C74.8544 40.151 74.997 40.4948 75.2067 40.7799C75.6595 41.3586 76.4143 41.6772 77.4709 41.7443C77.7644 41.7611 78.1502 41.7695 78.6198 41.7695C78.7624 41.7695 79.1397 41.7611 79.7687 41.7443L80.7079 41.7192V38.9601H80.4983C79.1649 38.9601 78.4018 38.8847 78.2173 38.7421C78.0328 38.5912 77.9405 38.2222 77.9405 37.6351V31.1778H80.7247V28.5697H77.9405V24.5863H74.6867V28.5614ZM82.2342 27.4628H85.5132V24.4438H82.2342V27.4628ZM82.2342 41.585H85.5132V28.5614H82.2342V41.585ZM98.5955 32.5196C98.5285 31.7061 98.3523 31.052 98.0756 30.5656C97.1531 28.989 95.4424 28.1924 92.9433 28.1924C91.2577 28.1924 89.9159 28.5865 88.9096 29.3664C87.9032 30.1463 87.4001 31.1862 87.4001 32.4944C87.4001 33.5343 87.7271 34.3813 88.3896 35.0187C89.0521 35.6644 90.3688 36.1005 92.3479 36.3437C93.371 36.4695 94.0503 36.5449 94.3941 36.5953C94.7295 36.6372 95.0147 36.7462 95.2411 36.9223C95.3082 36.9726 95.3501 37.023 95.3753 37.0817C95.4927 37.2242 95.5598 37.4339 95.5598 37.7358C95.5598 38.7253 94.7799 39.2201 93.2117 39.2201C91.4757 39.2201 90.5365 38.5492 90.4023 37.2158H87.0143C87.1904 38.3647 87.4755 39.2033 87.8697 39.7401C88.8928 41.1657 90.6371 41.8785 93.1026 41.8785C94.9056 41.8785 96.3229 41.4927 97.3376 40.7212C98.3523 39.9497 98.8639 38.8763 98.8639 37.501C98.8639 36.2347 98.4614 35.2703 97.6647 34.6077C96.868 33.9452 95.652 33.5511 94.0335 33.4085C92.4066 33.266 91.4338 33.1066 91.1067 32.9138C90.8468 32.7544 90.7126 32.5028 90.7126 32.159C90.7126 31.2365 91.4506 30.7753 92.9265 30.7753C94.436 30.7753 95.2746 31.3539 95.4256 32.5196H98.5955ZM100.491 41.585H103.77V34.8845C103.77 33.7775 103.845 33.0144 104.005 32.6202C104.197 32.1338 104.525 31.7313 104.977 31.421C105.439 31.1107 105.933 30.9514 106.478 30.9514C107.242 30.9514 107.795 31.203 108.147 31.7062C108.307 31.9326 108.399 32.1758 108.432 32.4357C108.466 32.5783 108.5 33.0647 108.533 33.8949L108.558 41.5766H111.812V34.1046C111.812 32.7293 111.728 31.7481 111.552 31.1611C111.376 30.574 111.066 30.0373 110.613 29.5761C109.766 28.7039 108.625 28.2762 107.2 28.2762C105.808 28.2762 104.667 28.7291 103.761 29.6348V24.427H100.482V41.585H100.491Z" fill="#00AEEF"/>
<path d="M58.0403 54.0299C57.8978 52.2604 57.2185 50.8516 55.9857 49.7949C54.753 48.7466 53.1596 48.2183 51.214 48.2183C48.8491 48.2183 46.9874 48.9982 45.6121 50.5497C44.2368 52.1011 43.5575 54.2144 43.5575 56.8896C43.5575 59.5815 44.2535 61.7284 45.654 63.3217C47.0545 64.9235 48.933 65.7202 51.2895 65.7202C52.7822 65.7202 54.0737 65.4099 55.1723 64.7977C56.2625 64.1855 57.0675 63.305 57.5707 62.1812C57.8474 61.5523 58.0403 60.7891 58.141 59.8918H54.5769C54.4008 60.6549 54.1659 61.2084 53.8724 61.5606C53.2854 62.2735 52.4468 62.6257 51.3734 62.6257C50.0567 62.6257 49.0001 62.1057 48.2202 61.0742C47.4403 60.0428 47.0461 58.6507 47.0461 56.898C47.0461 55.1956 47.4235 53.837 48.1782 52.8055C48.933 51.7824 49.9477 51.2709 51.214 51.2709C52.3965 51.2709 53.2854 51.6566 53.8976 52.4198C54.1743 52.7636 54.4008 53.3087 54.5769 54.0383H58.0403V54.0299ZM60.7658 53.8873C59.6085 55.1453 59.0299 56.8057 59.0299 58.8771C59.0299 60.9401 59.6085 62.5837 60.7658 63.7997C61.9231 65.0157 63.4661 65.6195 65.4117 65.6195C67.3573 65.6195 68.9004 64.9989 70.0325 63.7578C71.173 62.5167 71.7349 60.8478 71.7349 58.7429C71.7349 56.7302 71.1478 55.1033 69.9654 53.8622C68.7829 52.621 67.2399 52.0005 65.3279 52.0005C63.441 52.0005 61.9147 52.6294 60.7658 53.8873ZM67.676 55.8497C68.2462 56.5961 68.5314 57.594 68.5314 58.8435C68.5314 60.1098 68.2462 61.1078 67.6844 61.829C67.1225 62.5502 66.351 62.9108 65.3782 62.9108C64.4054 62.9108 63.6255 62.5502 63.0301 61.829C62.443 61.1078 62.1411 60.1434 62.1411 58.9274C62.1411 57.6443 62.4347 56.6212 63.0133 55.8665C63.5919 55.1117 64.3802 54.7343 65.3698 54.7343C66.3426 54.7343 67.1057 55.1033 67.676 55.8497ZM73.4624 65.3847H76.7162V48.2183H73.4624V65.3847ZM78.9553 65.3847H82.2091V48.2183H78.9553V65.3847ZM96.1972 59.5228C96.2139 59.3635 96.2223 59.1874 96.2223 58.9777C96.2223 56.7889 95.6688 55.0698 94.5535 53.8203C93.4381 52.5707 91.9202 51.9418 89.9998 51.9418C88.0878 51.9418 86.5615 52.5623 85.4126 53.8035C84.2637 55.0446 83.6935 56.6967 83.6935 58.7681C83.6935 60.8898 84.2889 62.567 85.4797 63.8081C86.6705 65.0493 88.2723 65.6698 90.285 65.6698C93.5304 65.6698 95.4508 64.1771 96.0378 61.1916L92.7002 61.0575C92.4905 61.5774 92.2892 61.938 92.1047 62.1225C91.6519 62.5754 91.0062 62.8018 90.1508 62.8018C88.222 62.8018 87.1821 61.7116 87.0227 59.5228H96.1972ZM87.1821 56.9986C87.5259 55.4388 88.4652 54.6505 89.9914 54.6505C91.568 54.6505 92.4905 55.4388 92.7505 57.0237H87.1737V56.9986H87.1821ZM106.118 52.3611V53.1913C105.304 52.3778 104.231 51.9669 102.914 51.9669C101.179 51.9669 99.7864 52.5539 98.7382 53.728C97.6899 54.9021 97.1616 56.4535 97.1616 58.3739C97.1616 60.2859 97.6731 61.8206 98.6962 62.9863C99.7193 64.1519 101.086 64.7306 102.789 64.7306C104.139 64.7306 105.229 64.3197 106.042 63.5062C106.059 63.783 106.068 64.0262 106.068 64.2358C106.068 65.1583 105.9 65.7789 105.573 66.1143C105.103 66.5839 104.29 66.8187 103.124 66.8187C101.598 66.8187 100.793 66.282 100.701 65.2002H97.3377C97.4383 66.76 98.0169 67.8335 99.0736 68.4205C100.122 68.9991 101.531 69.2926 103.309 69.2926C106.068 69.2926 107.854 68.5882 108.676 67.1793C109.061 66.5168 109.246 65.4099 109.246 63.8417V52.3527H106.118V52.3611ZM103.283 62.0806C102.411 62.0806 101.715 61.7451 101.187 61.0659C100.659 60.3866 100.39 59.4893 100.39 58.3571C100.39 57.225 100.667 56.3277 101.212 55.6484C101.757 54.9691 102.487 54.6337 103.384 54.6337C105.17 54.6337 106.068 55.8497 106.068 58.2817V58.441C106.068 60.8646 105.137 62.0806 103.283 62.0806ZM123.259 59.5228C123.276 59.3635 123.284 59.1874 123.284 58.9777C123.284 56.7889 122.731 55.0698 121.615 53.8203C120.5 52.5707 118.982 51.9418 117.062 51.9418C115.15 51.9418 113.624 52.5623 112.475 53.8035C111.326 55.0446 110.755 56.6967 110.755 58.7681C110.755 60.8898 111.351 62.567 112.542 63.8081C113.733 65.0493 115.334 65.6698 117.347 65.6698C120.592 65.6698 122.513 64.1771 123.1 61.1916L119.762 61.0575C119.552 61.5774 119.351 61.938 119.167 62.1225C118.714 62.5754 118.068 62.8018 117.213 62.8018C115.284 62.8018 114.244 61.7116 114.085 59.5228H123.259ZM114.244 56.9986C114.588 55.4388 115.527 54.6505 117.053 54.6505C118.63 54.6505 119.552 55.4388 119.812 57.0237H114.236V56.9986H114.244Z" fill="#00AEEF"/>
<path d="M43.0123 3.57893H47.4402V17.8269H50.8785V3.57893H55.2812V0.668945H43.0123V3.57893ZM56.5811 17.8269H59.86V11.1348C59.86 10.0279 59.9355 9.26472 60.0949 8.87057C60.2877 8.38417 60.6148 7.98164 61.0676 7.67135C61.5289 7.36107 62.0237 7.20173 62.5688 7.20173C63.3319 7.20173 63.8854 7.45331 64.2376 7.95648C64.3969 8.18291 64.4892 8.42611 64.5227 8.68607C64.5563 8.82864 64.5898 9.31503 64.6234 10.1453L64.6485 17.8269H67.9023V10.3549C67.9023 8.97959 67.8185 7.99841 67.6424 7.41138C67.4663 6.82436 67.156 6.28765 66.7031 5.82641C65.8561 4.95425 64.7156 4.52656 63.29 4.52656C61.8979 4.52656 60.7574 4.97941 59.8517 5.87672V0.668945H56.5727V17.8269H56.5811ZM81.7394 11.9734C81.7562 11.8141 81.7646 11.638 81.7646 11.4283C81.7646 9.23956 81.2111 7.5204 80.0957 6.27087C78.9804 5.02134 77.4625 4.39238 75.5421 4.39238C73.63 4.39238 72.1038 5.01295 70.9549 6.2541C69.806 7.49524 69.2357 9.14731 69.2357 11.2187C69.2357 13.3404 69.8311 15.0176 71.022 16.2587C72.2128 17.4999 73.8145 18.1205 75.8272 18.1205C79.0726 18.1205 80.9931 16.6277 81.5801 13.6423L78.2424 13.5081C78.0328 14.028 77.8315 14.3886 77.647 14.5731C77.1941 15.026 76.5484 15.2524 75.693 15.2524C73.7642 15.2524 72.7243 14.1622 72.565 11.9734H81.7394ZM72.7327 9.44082C73.0766 7.88101 74.0158 7.09271 75.5421 7.09271C77.1187 7.09271 78.0411 7.88101 78.3011 9.46598H72.7243V9.44082H72.7327Z" fill="#00AEEF"/>
<path d="M18.8855 13.0636H23.4727C23.4727 13.0636 32.4878 17.4999 32.4878 25.6847C32.4878 33.8612 23.4727 38.3058 23.4727 38.3058H18.8855C18.8855 38.3058 25.8292 33.8696 25.8292 25.6847C25.8292 17.4999 18.8855 13.0636 18.8855 13.0636Z" fill="#2E348E"/>
<path d="M18.8855 29.2742H23.4727C23.4727 29.2742 32.4878 33.7104 32.4878 41.8953C32.4878 50.0717 23.4727 54.5164 23.4727 54.5164H18.8855C18.8855 54.5164 25.8292 50.0801 25.8292 41.8953C25.8292 33.7104 18.8855 29.2742 18.8855 29.2742Z" fill="#2E348E"/>
<path d="M34.1986 10.6065L35.6074 0.668945C35.6074 0.668945 25.0242 0.668945 19.7409 0.668945L18.332 10.6065H34.1986Z" fill="#2E348E"/>
<path d="M26.4413 66.2651L27.8502 56.3275C27.8502 56.3275 17.2669 56.3275 11.9837 56.3275L10.5664 66.2651H26.4413Z" fill="#2E348E"/>
<path d="M15.8665 10.6065L17.2754 0.668945C17.2754 0.668945 6.69212 0.668945 1.40887 0.668945L0 10.6065H15.8665Z" fill="#ED2127"/>
</svg>
