<svg width="105" height="90" viewBox="0 0 105 90" fill="none" xmlns="http://www.w3.org/2000/svg">
<path d="M80.7693 11.2628C79.9316 11.0966 79.0873 11.2628 78.3759 11.7348C77.6645 12.2069 77.1858 12.9249 77.013 13.7626L76.5143 16.2358C70.0588 8.01838 60.864 2.69301 50.4127 1.16388C39.2767 -0.471623 28.2603 2.42708 19.4046 9.32811C18.7331 9.85334 18.301 10.6113 18.2013 11.4556C18.1414 11.9409 18.1946 12.4196 18.3475 12.8651C18.4605 13.1975 18.6334 13.5166 18.8528 13.8025C19.378 14.474 20.1293 14.8995 20.9736 15.0058C21.818 15.1122 22.6557 14.8795 23.3272 14.3543C30.7933 8.53695 40.0878 6.09034 49.4953 7.46656C58.0983 8.72976 65.6974 13.0379 71.1158 19.6797L68.7889 19.2076C67.9512 19.0414 67.1069 19.2076 66.3955 19.6797C65.6841 20.1517 65.2054 20.8697 65.0326 21.7074C64.8664 22.5451 65.0326 23.3961 65.5046 24.1008C65.9766 24.8122 66.6947 25.2909 67.5324 25.4638L77.4983 27.4782C78.3294 27.6444 79.1804 27.4782 79.8917 27.0062C80.6031 26.5342 81.0818 25.8161 81.2547 24.9784L83.2691 15.0125C83.6148 13.2906 82.4912 11.6085 80.7693 11.2628ZM81.5073 14.6601L79.4928 24.6261C79.4197 24.9917 79.2069 25.3042 78.8945 25.5103C78.582 25.7164 78.2097 25.7895 77.844 25.7164L67.8781 23.7019C67.5124 23.6288 67.1999 23.4161 66.9938 23.1036C66.7877 22.7911 66.7146 22.4188 66.7877 22.0531C66.8609 21.6875 67.0736 21.375 67.3861 21.1689C67.6986 20.9628 68.0709 20.8897 68.4365 20.9628L73.0904 21.9002C73.4494 21.9734 73.8217 21.8204 74.0212 21.508C74.2206 21.2021 74.214 20.8032 74.0013 20.5041C68.2437 12.3997 59.6341 7.13414 49.7545 5.68479C39.8617 4.23544 30.0819 6.80837 22.2235 12.9315C21.931 13.1576 21.5653 13.264 21.193 13.2174C20.8207 13.1709 20.495 12.9847 20.2623 12.6922C20.0362 12.3997 19.9298 12.034 19.9764 11.6617C20.0229 11.2894 20.2091 10.9636 20.5016 10.7309C28.9717 4.13571 39.4961 1.36333 50.1468 2.92571C60.7842 4.48808 70.0588 10.1525 76.2617 18.8819C76.4678 19.1744 76.8268 19.314 77.1792 19.2409C77.5316 19.1677 77.7975 18.8952 77.8706 18.5428L78.7682 14.1083C78.8413 13.7426 79.054 13.4302 79.3665 13.2241C79.679 13.018 80.0513 12.9448 80.417 13.018C80.9222 13.1177 81.3078 13.4834 81.4608 13.9421C81.5405 14.1615 81.5605 14.4141 81.5073 14.6601Z" fill="#81BB88"/>
<path d="M33.2732 75.1537C32.9408 74.3692 32.3225 73.7642 31.538 73.4385C22.6159 69.8084 15.5686 62.555 12.2178 53.5332C9.11961 45.2027 9.3789 35.9482 12.8959 27.8305L13.6738 30.1375C14.2389 31.7996 16.0472 32.6971 17.7093 32.132C19.3781 31.5735 20.2756 29.7585 19.7172 28.0964L16.4727 18.4496C15.9076 16.7875 14.0993 15.8966 12.4372 16.4551L2.79699 19.6928C1.99253 19.9654 1.33434 20.5305 0.955383 21.2951C0.576424 22.0597 0.516588 22.9239 0.789173 23.735C1.35429 25.3971 3.16265 26.2947 4.82475 25.7296L7.19823 24.9318C3.04963 34.2794 2.551 44.9235 5.84195 54.6235C5.97492 55.0091 6.10789 55.3947 6.25415 55.7737C10.2365 66.4576 18.5803 75.0407 29.1446 79.3356C29.9357 79.6547 30.8 79.6481 31.5845 79.3223C32.3691 78.9899 32.9807 78.3716 33.2998 77.5871C33.6123 76.8092 33.6057 75.9383 33.2732 75.1537ZM31.6311 76.9222C31.4915 77.2679 31.2255 77.5405 30.8798 77.6801C30.5341 77.8264 30.1551 77.8264 29.8094 77.6868C19.7105 73.5847 11.7324 65.374 7.9229 55.162C4.06018 44.8105 4.69843 33.6877 9.70467 23.8348C9.8177 23.6154 9.83099 23.3627 9.75121 23.1433C9.71797 23.037 9.65813 22.9372 9.57835 22.8442C9.33901 22.5716 8.96005 22.4652 8.61434 22.5782L4.23969 24.0475C3.51502 24.2935 2.71721 23.9013 2.47122 23.1699C2.35155 22.8176 2.37814 22.4386 2.54435 22.1062C2.71056 21.7738 2.99644 21.5211 3.34881 21.4015L12.989 18.1637C13.7137 17.9177 14.5115 18.31 14.7575 19.0413L18.0019 28.6815C18.1215 29.0338 18.0949 29.4128 17.9287 29.7452C17.7625 30.0776 17.4767 30.3303 17.1243 30.4499C16.3996 30.6959 15.6018 30.3037 15.3558 29.5723L13.8732 25.1578C13.7602 24.8187 13.4477 24.5794 13.0887 24.5528C12.7297 24.5262 12.3906 24.719 12.2244 25.0381C7.61708 34.0534 6.99878 44.6775 10.5291 54.1648C14.0594 63.6587 21.4657 71.2844 30.8532 75.1006C31.1989 75.2402 31.4715 75.5061 31.6111 75.8518C31.7641 76.1975 31.7707 76.5765 31.6311 76.9222Z" fill="#81BB88"/>
<path d="M33.3992 23.7882H31.2983V21.7804H37.9401V23.7882H35.8525V32.4577H33.3992V23.7882Z" fill="#00AEEF"/>
<path d="M38.8708 21.7804H42.4277C44.3425 21.7804 45.3996 22.7444 45.3996 24.5195C45.3996 25.8492 44.8012 26.4808 44.1364 26.7202C44.8943 27.0393 45.6988 27.7041 45.6988 29.2997C45.6988 31.4006 44.4023 32.4644 42.348 32.4644H38.8708V21.7804ZM41.9225 25.9423C42.8266 25.9423 43.0327 25.5766 43.0327 24.7589C43.0327 23.9212 42.7003 23.5755 41.9424 23.5755H41.2643V25.9489H41.9225V25.9423ZM41.2576 30.6826H42.0355C42.7934 30.6826 43.1923 30.3169 43.1923 29.1934C43.1923 28.1163 42.8732 27.6576 41.8959 27.6576H41.2643V30.6826H41.2576Z" fill="#00AEEF"/>
<path d="M53.6104 29.1007C53.5772 30.211 53.1849 32.6576 50.2131 32.6576C47.2545 32.6576 46.6362 30.5102 46.6362 27.0929C46.6362 23.2368 47.8529 21.588 50.3061 21.588C53.1517 21.588 53.5772 23.7687 53.6104 25.0385H51.1571C51.1438 24.4402 51.1239 23.5227 50.2729 23.5227C49.4219 23.5227 49.2158 24.5 49.2158 27.1128C49.2158 29.4065 49.3421 30.7495 50.2463 30.7495C51.084 30.7495 51.1306 29.7522 51.1638 29.1073H53.6104V29.1007Z" fill="#00AEEF"/>
<path d="M22.6822 43.4675C22.7487 44.3518 22.9814 44.9568 23.726 44.9568C24.4374 44.9568 24.6568 44.4847 24.6568 43.8664C24.6568 43.1418 24.2911 42.6963 23.0279 42.0448C21.1797 41.094 20.4816 40.2896 20.4816 38.7206C20.4816 36.8856 21.5919 35.6823 23.7061 35.6823C26.2059 35.6823 26.9173 37.2446 26.9306 38.8801H24.577C24.5305 38.1355 24.3842 37.5039 23.6928 37.5039C23.1543 37.5039 22.9016 37.8496 22.9016 38.4546C22.9016 39.0729 23.141 39.3854 24.3111 39.9572C26.2857 40.9544 27.1234 41.8054 27.1234 43.5938C27.1234 45.3623 26.0929 46.7718 23.6928 46.7718C21.0999 46.7718 20.3087 45.2825 20.2622 43.4675H22.6822Z" fill="#00AEEF"/>
<path d="M34.4298 43.9596C34.4298 45.3358 34.4298 46.1602 34.4431 46.5724H32.1494C32.0829 46.3197 32.0696 45.9541 32.0563 45.7347C31.6308 46.4594 31.059 46.712 30.208 46.712C28.9714 46.712 28.167 46.0804 28.167 44.2454V38.2486H30.587V43.7867C30.587 44.4516 30.7133 44.784 31.2186 44.784C31.7704 44.784 32.0098 44.4648 32.0098 43.5208V38.2552H34.4298V43.9596Z" fill="#00AEEF"/>
<path d="M37.7008 43.9861C37.7008 44.4913 37.8936 44.9966 38.5053 44.9966C38.9773 44.9966 39.1834 44.744 39.1834 44.3185C39.1834 43.8465 38.964 43.6071 38.0598 43.2747C36.1318 42.5633 35.5933 41.8985 35.5933 40.5887C35.5933 39.3388 36.3512 38.1089 38.4388 38.1089C40.8721 38.1089 41.3308 39.658 41.3308 40.7018H39.1502C39.1502 40.3361 39.1036 39.751 38.4521 39.751C38.0731 39.751 37.867 39.9904 37.867 40.3494C37.867 40.7948 38.1197 41.0009 39.0704 41.3467C40.8389 41.9982 41.5236 42.7096 41.5236 44.0326C41.5236 45.708 40.5596 46.7053 38.4587 46.7053C36.1783 46.7053 35.4404 45.3756 35.4204 43.9861H37.7008Z" fill="#00AEEF"/>
<path d="M41.8892 38.2487H42.8864V36.2874H45.2732V38.2487H46.4101V40.1634H45.2732V44.1325C45.2732 44.578 45.3663 44.7974 45.9048 44.7974C46.0444 44.7974 46.1441 44.7974 46.2838 44.7841V46.506C45.8716 46.6656 45.2732 46.6789 44.9408 46.6789C43.3784 46.6789 42.8532 46.0805 42.8532 44.558V40.1634H41.8892V38.2487Z" fill="#00AEEF"/>
<path d="M53.3114 44.5113C53.3114 45.0831 53.358 46.1534 53.3779 46.5656H51.1972C51.1507 46.3928 51.1175 46.0604 51.1042 45.841C50.7119 46.4127 50.1268 46.7119 49.2559 46.7119C47.7866 46.7119 47.042 45.575 47.042 44.1523C47.042 42.3306 48.2786 41.4131 50.2864 41.4131C50.5391 41.4131 50.7917 41.4131 50.9513 41.4264V40.622C50.9513 40.1632 50.8848 39.7843 50.2997 39.7843C49.7479 39.7843 49.6482 40.13 49.6216 40.735H47.3611C47.3944 39.2657 48.1057 38.1089 50.3994 38.1089C52.3275 38.1089 53.3247 38.9 53.3247 40.6087V44.5113H53.3114ZM50.9712 42.9423C50.8316 42.929 50.6853 42.929 50.5125 42.929C49.6748 42.929 49.4221 43.3744 49.4221 43.9395C49.4221 44.4116 49.6149 44.8238 50.1335 44.8238C50.8449 44.8238 50.9712 44.272 50.9712 43.3345V42.9423Z" fill="#00AEEF"/>
<path d="M54.7476 38.2486H57.1676V46.5658H54.7476V38.2486ZM54.7609 37.3445V35.3832H57.1676V37.3445H54.7609Z" fill="#00AEEF"/>
<path d="M58.6034 40.8547C58.6034 39.1461 58.6034 38.6741 58.5901 38.2419H60.917C60.9503 38.4148 60.9835 38.7671 60.9835 38.9998C61.2494 38.5876 61.788 38.0956 62.8052 38.0956C64.2146 38.0956 64.8928 38.9799 64.8928 40.5755V46.5524H62.4727V41.0143C62.4727 40.3827 62.3597 40.017 61.7946 40.017C61.2694 40.017 61.0367 40.283 61.0367 41.2204V46.5524H58.6167V40.8547H58.6034Z" fill="#00AEEF"/>
<path d="M72.1725 44.5113C72.1725 45.0831 72.2191 46.1534 72.239 46.5656H70.0583C70.0118 46.3928 69.9785 46.0604 69.9652 45.841C69.573 46.4127 68.9879 46.7119 68.117 46.7119C66.6477 46.7119 65.9031 45.575 65.9031 44.1523C65.9031 42.3306 67.1397 41.4131 69.1475 41.4131C69.4001 41.4131 69.6528 41.4131 69.8123 41.4264V40.622C69.8123 40.1632 69.7459 39.7843 69.1608 39.7843C68.609 39.7843 68.5092 40.13 68.4827 40.735H66.2222C66.2554 39.2657 66.9668 38.1089 69.2605 38.1089C71.1886 38.1089 72.1858 38.9 72.1858 40.6087V44.5113H72.1725ZM69.8323 42.9423C69.6927 42.929 69.5464 42.929 69.3735 42.929C68.5358 42.929 68.2832 43.3744 68.2832 43.9395C68.2832 44.4116 68.476 44.8238 68.9946 44.8238C69.706 44.8238 69.8323 44.272 69.8323 43.3345V42.9423Z" fill="#00AEEF"/>
<path d="M73.6154 35.3832H76.0354V38.9866C76.3213 38.5146 76.8731 38.1024 77.7906 38.1024C79.4195 38.1024 80.1441 39.4121 80.1441 42.1512C80.1441 45.143 79.446 46.7054 77.5513 46.7054C76.5407 46.7054 76.1883 46.2134 75.9689 45.8345C75.9689 46.0073 75.9556 46.3264 75.9224 46.5591H73.5955C73.6088 45.8943 73.6088 45.0101 73.6088 44.3452V35.3832H73.6154ZM76.8731 40.0371C76.2083 40.0371 75.9889 40.4825 75.9889 42.4105C75.9889 44.3585 76.1617 44.7973 76.8266 44.7973C77.5047 44.7973 77.7108 44.1657 77.7108 42.251C77.7108 40.682 77.5845 40.0371 76.8731 40.0371Z" fill="#00AEEF"/>
<path d="M81.2812 38.2486H83.7013V46.5658H81.2812V38.2486ZM81.2945 37.3445V35.3832H83.7013V37.3445H81.2945Z" fill="#00AEEF"/>
<path d="M85.1372 46.5658V35.3832H87.5572V46.5658H85.1372Z" fill="#00AEEF"/>
<path d="M88.98 38.2486H91.4V46.5658H88.98V38.2486ZM88.9999 37.3445V35.3832H91.4066V37.3445H88.9999Z" fill="#00AEEF"/>
<path d="M92.2842 38.2487H93.2814V36.2874H95.6682V38.2487H96.8051V40.1634H95.6682V44.1325C95.6682 44.578 95.7613 44.7974 96.2998 44.7974C96.4394 44.7974 96.5392 44.7974 96.6788 44.7841V46.506C96.2666 46.6656 95.6682 46.6789 95.3358 46.6789C93.7734 46.6789 93.2482 46.0805 93.2482 44.558V40.1634H92.2842V38.2487Z" fill="#00AEEF"/>
<path d="M100.003 38.2486C100.395 40.303 100.874 42.6764 100.953 43.7335H101C101.173 42.4836 101.552 40.3628 101.951 38.2486H104.384C104.271 38.6741 102.502 45.3823 102.203 46.486C101.505 49.0788 100.794 49.5376 99.1517 49.5376C98.8193 49.5376 98.4536 49.5043 98.1544 49.4578V47.5431C98.2941 47.5563 98.5666 47.5763 98.7395 47.5763C99.391 47.5763 99.6437 47.337 99.77 46.6455L97.3633 38.2486H100.003Z" fill="#00AEEF"/>
<path d="M42.9663 50.588V58.0542C42.9663 58.7522 43.1059 59.5434 43.9769 59.5434C44.8146 59.5434 44.9608 58.8653 44.9608 58.0741V50.588H47.4274V57.9877C47.4274 60.1684 46.3703 61.4648 43.917 61.4648C41.4505 61.4648 40.4998 60.1684 40.4998 57.9677V50.588H42.9663Z" fill="#00AEEF"/>
<path d="M48.7176 55.5544C48.7176 53.8458 48.7176 53.3738 48.7043 52.9416H51.0313C51.0645 53.1145 51.0978 53.4668 51.0978 53.6995C51.3637 53.2873 51.9022 52.7953 52.9194 52.7953C54.3289 52.7953 55.007 53.6796 55.007 55.2752V61.2521H52.587V55.714C52.587 55.0824 52.474 54.7167 51.9089 54.7167C51.3836 54.7167 51.151 54.9827 51.151 55.9201V61.2521H48.7309V55.5544H48.7176Z" fill="#00AEEF"/>
<path d="M56.4229 52.9482H58.8429V61.2654H56.4229V52.9482ZM56.4362 52.044V50.0828H58.8429V52.044H56.4362Z" fill="#00AEEF"/>
<path d="M59.7271 52.9482H60.7243V50.9869H63.1111V52.9482H64.248V54.863H63.1111V58.832C63.1111 59.2775 63.2042 59.4969 63.7427 59.4969C63.8823 59.4969 63.982 59.4969 64.1216 59.4836V61.2055C63.7094 61.3651 63.1111 61.3784 62.7787 61.3784C61.2163 61.3784 60.6911 60.78 60.6911 59.2575V54.863H59.7271V52.9482Z" fill="#00AEEF"/>
<path d="M81.6534 53.5199C80.1974 58.0143 77.9037 62.2559 74.8189 66.0721C67.9312 74.5821 58.1314 79.6947 47.2214 80.4593C46.8624 80.4858 46.5499 80.7252 46.4369 81.0643C46.3239 81.4033 46.4236 81.7823 46.6895 82.0216L50.2065 85.1264C50.7849 85.6384 50.8381 86.5226 50.3329 87.0944C50.0869 87.3736 49.7478 87.5398 49.3755 87.5664C49.0032 87.5863 48.6442 87.4667 48.3649 87.2207L40.7392 80.4925C40.46 80.2465 40.2938 79.9008 40.2672 79.5285C40.2472 79.1562 40.3669 78.7971 40.6129 78.5179L47.3411 70.8922C47.853 70.3138 48.7372 70.2606 49.309 70.7659C49.4952 70.9321 49.6281 71.1382 49.7079 71.3642C49.8608 71.823 49.7744 72.3482 49.4353 72.7405L46.4103 76.171C46.171 76.4436 46.1178 76.8359 46.2773 77.1616C46.4369 77.4874 46.7826 77.6802 47.1483 77.6536C57.1009 76.9157 66.4153 72.0291 72.6981 64.2438C75.3441 60.9595 77.3519 57.3361 78.7082 53.5066H76.8001C75.517 56.9306 73.682 60.175 71.3019 63.1202C65.7239 70.0346 57.9652 74.4225 49.2758 75.6259L50.7849 73.9172C51.9484 72.6008 51.8221 70.5797 50.5057 69.4163C49.1893 68.2528 47.1682 68.3791 46.0047 69.6955L39.2766 77.3212C38.7115 77.9595 38.4322 78.7772 38.4854 79.6216C38.5054 79.9074 38.5585 80.1867 38.6516 80.4593C38.8311 80.9778 39.137 81.4499 39.5624 81.8222L47.1882 88.5504C47.8264 89.1155 48.6442 89.3947 49.4952 89.3415C50.3461 89.2883 51.124 88.9094 51.6891 88.2711C52.8526 86.9547 52.7263 84.9336 51.4099 83.7702L49.442 82.0349C60.0129 80.7584 69.4603 75.5394 76.2217 67.1824C79.5791 63.0405 82.0258 58.4065 83.5416 53.5H81.6534V53.5199Z" fill="#81BB88"/>
</svg>
