<svg width="38" height="37" viewBox="0 0 38 37" fill="none" xmlns="http://www.w3.org/2000/svg">
<path fill-rule="evenodd" clip-rule="evenodd" d="M19.0001 4.125C11.2781 4.125 5.45842 9.44417 5.45842 15.5V18.2322C5.63608 18.217 5.81808 18.2083 6.00008 18.2083H12.5001C12.9311 18.2083 13.3444 18.3795 13.6491 18.6843C13.9539 18.989 14.1251 19.4024 14.1251 19.8333V35C14.1251 35.431 13.9539 35.8443 13.6491 36.1491C13.3444 36.4538 12.9311 36.625 12.5001 36.625H6.00008C4.41983 36.625 2.90431 35.9972 1.7869 34.8798C0.669499 33.7624 0.041748 32.2469 0.041748 30.6667V24.1667C0.041748 22.3163 0.886748 20.6632 2.20841 19.5712V15.5C2.20841 7.19733 9.96941 0.875 19.0001 0.875C28.0308 0.875 35.7917 7.19733 35.7917 15.5V19.5712C37.1134 20.6632 37.9584 22.3163 37.9584 24.1667V30.6667C37.9584 32.2469 37.3307 33.7624 36.2133 34.8798C35.0959 35.9972 33.5803 36.625 32.0001 36.625H25.5001C25.0691 36.625 24.6558 36.4538 24.351 36.1491C24.0463 35.8443 23.8751 35.431 23.8751 35V19.8333C23.8751 19.4024 24.0463 18.989 24.351 18.6843C24.6558 18.3795 25.0691 18.2083 25.5001 18.2083H32.0001C32.1821 18.2083 32.3641 18.217 32.5417 18.2322V15.5C32.5417 9.44417 26.7221 4.125 19.0001 4.125ZM6.00008 21.4583C4.50508 21.4583 3.29175 22.6717 3.29175 24.1667V30.6667C3.29175 32.1617 4.50508 33.375 6.00008 33.375H10.8751V21.4583H6.00008ZM34.7084 24.1667C34.7084 22.6717 33.4951 21.4583 32.0001 21.4583H27.1251V33.375H32.0001C33.4951 33.375 34.7084 32.1617 34.7084 30.6667V24.1667Z" fill="#FAFAFA"/>
</svg>
