<svg width="36" height="36" viewBox="0 0 36 36" fill="none" xmlns="http://www.w3.org/2000/svg">
<path d="M20.415 18.3638C20.406 18.839 20.2561 19.3008 19.9842 19.6907C19.7124 20.0805 19.331 20.3809 18.8883 20.5538C18.4456 20.7266 17.9615 20.7641 17.4974 20.6615C17.0334 20.5589 16.6102 20.3209 16.2816 19.9775C15.953 19.6342 15.7337 19.201 15.6516 18.7329C15.5695 18.2647 15.6282 17.7828 15.8202 17.3481C16.0123 16.9133 16.3292 16.5455 16.7306 16.291C17.132 16.0366 17.5999 15.907 18.075 15.9188C18.7064 15.9422 19.3038 16.2106 19.7407 16.667C20.1775 17.1234 20.4194 17.7321 20.415 18.3638Z" fill="white"/>
<path d="M22.1444 10.8501H14.0069C13.2018 10.8501 12.4295 11.17 11.8602 11.7393C11.2908 12.3087 10.9709 13.0809 10.9709 13.8861V22.2066C10.9709 22.6053 11.0495 23.0001 11.202 23.3684C11.3546 23.7368 11.5783 24.0715 11.8602 24.3534C12.1421 24.6353 12.4768 24.8589 12.8451 25.0115C13.2135 25.1641 13.6083 25.2426 14.0069 25.2426H22.1444C22.5431 25.2426 22.9379 25.1641 23.3063 25.0115C23.6746 24.8589 24.0093 24.6353 24.2912 24.3534C24.5731 24.0715 24.7968 23.7368 24.9493 23.3684C25.1019 23.0001 25.1804 22.6053 25.1804 22.2066V13.9011C25.182 13.5013 25.1047 13.105 24.9529 12.7351C24.801 12.3652 24.5777 12.0289 24.2957 11.7455C24.0136 11.4621 23.6784 11.2371 23.3093 11.0834C22.9401 10.9298 22.5443 10.8505 22.1444 10.8501ZM18.0749 22.4346C17.2694 22.4528 16.4767 22.2305 15.798 21.7962C15.1193 21.3619 14.5854 20.7352 14.2645 19.9961C13.9435 19.2571 13.8501 18.4391 13.996 17.6467C14.142 16.8543 14.5207 16.1233 15.084 15.5471C15.6472 14.9708 16.3693 14.5755 17.1582 14.4115C17.9471 14.2475 18.767 14.3223 19.5132 14.6263C20.2594 14.9303 20.8981 15.4497 21.3478 16.1183C21.7975 16.7869 22.0377 17.5743 22.0379 18.3801C22.0441 18.9066 21.9464 19.4291 21.7506 19.9178C21.5547 20.4065 21.2645 20.8519 20.8965 21.2284C20.5284 21.6049 20.0898 21.9052 19.6057 22.1122C19.1216 22.3192 18.6014 22.4287 18.0749 22.4346ZM22.4789 14.3271C22.38 14.3271 22.282 14.3074 22.1907 14.2691C22.0995 14.2307 22.0168 14.1746 21.9475 14.1039C21.8782 14.0332 21.8237 13.9494 21.7872 13.8574C21.7507 13.7654 21.733 13.6671 21.7349 13.5681C21.7349 13.3668 21.8149 13.1737 21.9573 13.0314C22.0996 12.8891 22.2926 12.8091 22.4939 12.8091C22.6952 12.8091 22.8883 12.8891 23.0306 13.0314C23.173 13.1737 23.2529 13.3668 23.2529 13.5681C23.2559 13.6753 23.2357 13.7818 23.1937 13.8804C23.1517 13.979 23.0889 14.0674 23.0095 14.1395C22.9302 14.2116 22.8362 14.2656 22.734 14.298C22.6318 14.3304 22.5238 14.3403 22.4174 14.3271H22.4789Z" fill="white"/>
<path d="M18.0749 3.00055C14.0967 2.98066 10.2735 4.54194 7.44638 7.34092C4.61926 10.1399 3.01983 13.9473 2.99994 17.9256C2.98005 21.9038 4.54133 25.727 7.34031 28.5541C10.1393 31.3812 13.9467 32.9807 17.9249 33.0006C19.8948 33.0104 21.8473 32.6322 23.6709 31.8874C25.4946 31.1427 27.1537 30.0461 28.5535 28.6602C29.9534 27.2743 31.0665 25.6262 31.8294 23.8101C32.5924 21.994 32.9901 20.0454 32.9999 18.0756C33.0098 16.1057 32.6316 14.1532 31.8868 12.3296C31.1421 10.5059 30.0455 8.84683 28.6596 7.44699C27.2737 6.04714 25.6256 4.93398 23.8095 4.17106C21.9934 3.40814 20.0448 3.0104 18.0749 3.00055ZM27.1844 22.0536C27.1886 22.7265 27.0592 23.3936 26.8036 24.0161C26.5481 24.6387 26.1715 25.2043 25.6957 25.6803C25.2199 26.1562 24.6544 26.5329 24.0319 26.7887C23.4094 27.0444 22.7424 27.174 22.0694 27.1701H14.0834C13.4106 27.1738 12.7437 27.0441 12.1213 26.7884C11.499 26.5327 10.9335 26.1561 10.4576 25.6804C9.98179 25.2047 9.60503 24.6394 9.34915 24.0171C9.09327 23.3948 8.96336 22.7279 8.96694 22.0551V14.0676C8.96276 13.3946 9.0922 12.7275 9.34775 12.105C9.60331 11.4824 9.97989 10.9168 10.4557 10.4409C10.9315 9.96493 11.497 9.58818 12.1195 9.33244C12.7419 9.0767 13.409 8.94707 14.0819 8.95105H22.0694C22.7423 8.94707 23.4092 9.07666 24.0316 9.3323C24.6539 9.58794 25.2194 9.96456 25.6952 10.4403C26.1709 10.9161 26.5476 11.4815 26.8032 12.1039C27.0588 12.7263 27.1884 13.3932 27.1844 14.0661V22.0536Z" fill="white"/>
</svg>
