<svg width="32" height="32" viewBox="0 0 32 32" fill="none" xmlns="http://www.w3.org/2000/svg">
<g clip-path="url(#clip0_566_703)">
<path d="M16 0.640137C7.51682 0.640137 0.640015 7.51694 0.640015 16.0001C0.640015 24.4833 7.51682 31.3601 16 31.3601C24.4832 31.3601 31.36 24.4833 31.36 16.0001C31.36 7.51694 24.4832 0.640137 16 0.640137ZM12.24 22.3665H9.12961V12.3569H12.24V22.3665ZM10.6656 11.1281C9.68321 11.1281 9.04801 10.4321 9.04801 9.57134C9.04801 8.69294 9.70241 8.01774 10.7056 8.01774C11.7088 8.01774 12.3232 8.69294 12.3424 9.57134C12.3424 10.4321 11.7088 11.1281 10.6656 11.1281ZM23.6 22.3665H20.4896V16.8193C20.4896 15.5281 20.0384 14.6513 18.9136 14.6513C18.0544 14.6513 17.544 15.2449 17.3184 15.8161C17.2352 16.0193 17.2144 16.3073 17.2144 16.5937V22.3649H14.1024V15.5489C14.1024 14.2993 14.0624 13.2545 14.0208 12.3553H16.7232L16.8656 13.7457H16.928C17.3376 13.0929 18.3408 12.1297 20.0192 12.1297C22.0656 12.1297 23.6 13.5009 23.6 16.4481V22.3665Z" fill="white"/>
</g>
<defs>
<clipPath id="clip0_566_703">
<rect width="32" height="32" fill="white"/>
</clipPath>
</defs>
</svg>
