<svg width="32" height="32" viewBox="0 0 32 32" fill="none" xmlns="http://www.w3.org/2000/svg">
<g clip-path="url(#clip0_566_705)">
<path d="M18.5648 15.7334L14.9712 14.0566C14.6576 13.911 14.4 14.0742 14.4 14.4214V17.5798C14.4 17.927 14.6576 18.0902 14.9712 17.9446L18.5632 16.2678C18.8784 16.1206 18.8784 15.8806 18.5648 15.7334ZM16 0.640625C7.51682 0.640625 0.640015 7.51743 0.640015 16.0006C0.640015 24.4838 7.51682 31.3606 16 31.3606C24.4832 31.3606 31.36 24.4838 31.36 16.0006C31.36 7.51743 24.4832 0.640625 16 0.640625ZM16 22.2406C8.13762 22.2406 8.00001 21.5318 8.00001 16.0006C8.00001 10.4694 8.13762 9.76062 16 9.76062C23.8624 9.76062 24 10.4694 24 16.0006C24 21.5318 23.8624 22.2406 16 22.2406Z" fill="white"/>
</g>
<defs>
<clipPath id="clip0_566_705">
<rect width="32" height="32" fill="white"/>
</clipPath>
</defs>
</svg>
