<svg width="11" height="18" viewBox="0 0 11 18" fill="none" xmlns="http://www.w3.org/2000/svg">
<path fill-rule="evenodd" clip-rule="evenodd" d="M1.05731 9.94272C0.807352 9.69268 0.666931 9.3536 0.666931 9.00005C0.666931 8.6465 0.807352 8.30742 1.05731 8.05738L8.59998 0.514717C8.72297 0.38737 8.8701 0.285794 9.03277 0.215915C9.19545 0.146036 9.37041 0.109255 9.54744 0.107716C9.72448 0.106178 9.90006 0.139914 10.0639 0.206955C10.2278 0.273996 10.3766 0.373 10.5018 0.498191C10.627 0.623381 10.726 0.77225 10.7931 0.936112C10.8601 1.09997 10.8939 1.27555 10.8923 1.45259C10.8908 1.62962 10.854 1.80458 10.7841 1.96726C10.7142 2.12993 10.6127 2.27706 10.4853 2.40005L3.88531 9.00005L10.4853 15.6001C10.7282 15.8515 10.8626 16.1883 10.8595 16.5379C10.8565 16.8875 10.7163 17.2219 10.4691 17.4691C10.2219 17.7164 9.88744 17.8566 9.53785 17.8596C9.18825 17.8627 8.85145 17.7283 8.59998 17.4854L1.05731 9.94272Z" fill="black"/>
</svg>
