<svg width="11" height="18" viewBox="0 0 11 18" fill="none" xmlns="http://www.w3.org/2000/svg">
<path fill-rule="evenodd" clip-rule="evenodd" d="M9.94265 8.05745C10.1926 8.30749 10.333 8.64657 10.333 9.00012C10.333 9.35367 10.1926 9.69275 9.94265 9.94278L2.39999 17.4855C2.27699 17.6128 2.12987 17.7144 1.9672 17.7843C1.80452 17.8541 1.62956 17.8909 1.45252 17.8925C1.27549 17.894 1.09991 17.8603 0.936051 17.7932C0.772189 17.7262 0.623319 17.6272 0.498129 17.502C0.372939 17.3768 0.273935 17.2279 0.206893 17.0641C0.139852 16.9002 0.106117 16.7246 0.107655 16.5476C0.109194 16.3705 0.145975 16.1956 0.215854 16.0329C0.285733 15.8702 0.387309 15.7231 0.514656 15.6001L7.11466 9.00012L0.514656 2.40012C0.271778 2.14865 0.137386 1.81185 0.140424 1.46225C0.143461 1.11265 0.283686 0.778238 0.530897 0.531027C0.778108 0.283816 1.11253 0.143591 1.46212 0.140553C1.81172 0.137515 2.14852 0.271908 2.39999 0.514785L9.94265 8.05745Z" fill="black"/>
</svg>
