<svg width="282" height="50" viewBox="0 0 282 50" fill="none" xmlns="http://www.w3.org/2000/svg">
<g clip-path="url(#clip0_545_110)">
<path d="M256.04 19.9797L255.231 20.8057C254.865 20.4545 254.432 20.1824 253.96 20.0058C253.488 19.8292 252.986 19.7518 252.483 19.7781C250.917 19.7781 250.004 20.6713 250.004 22.0097C249.969 22.5277 250.164 23.0373 250.536 23.3929C251.001 23.7457 251.545 23.9725 252.119 24.0537L253.409 24.2553C254.194 24.3022 254.945 24.5956 255.56 25.0953C256.229 25.6931 256.594 26.5681 256.552 27.4753C256.552 29.5795 254.933 30.8801 252.485 30.8801L252.505 30.8507C251.76 30.9033 251.013 30.7887 250.317 30.5148C249.62 30.241 248.991 29.8147 248.474 29.2659L249.334 28.3895C249.74 28.8374 250.238 29.1878 250.793 29.4154C251.348 29.643 251.945 29.7421 252.542 29.7055C254.263 29.7055 255.319 28.8795 255.319 27.4739C255.335 27.1998 255.293 26.9254 255.196 26.669C255.099 26.4127 254.95 26.1802 254.759 25.9871C254.322 25.6285 253.781 25.4271 253.22 25.4145L251.85 25.1919C251.051 25.1059 250.293 24.7914 249.662 24.2847C249.361 24.003 249.125 23.6571 248.969 23.2716C248.814 22.8862 248.745 22.4706 248.765 22.0545C248.765 20.0161 250.223 18.6637 252.534 18.6637C253.831 18.5937 255.098 19.0697 256.04 19.9797ZM106.371 20.0469L104.915 21.5337C104.587 21.2382 104.205 21.0128 103.79 20.8709C103.375 20.729 102.937 20.6735 102.501 20.7077C101.275 20.7077 100.677 21.3993 100.677 22.1959C100.674 22.3565 100.704 22.516 100.764 22.6644C100.824 22.8128 100.914 22.9469 101.028 23.0583C101.34 23.3201 101.72 23.4825 102.121 23.5259L103.506 23.7275C104.331 23.7891 105.118 24.1139 105.751 24.6571C106.392 25.3333 106.723 26.2531 106.662 27.1911C106.662 29.5193 104.761 30.8353 102.289 30.8353V30.8493C101.504 30.9128 100.715 30.8044 99.9741 30.5316C99.2336 30.2587 98.5588 29.8277 97.9951 29.2673L99.453 27.7791C99.8358 28.1342 100.285 28.4068 100.774 28.5807C101.263 28.7546 101.781 28.8263 102.297 28.7913C103.652 28.7913 104.382 28.2705 104.382 27.3031C104.392 27.1181 104.365 26.9328 104.302 26.7589C104.239 26.585 104.142 26.4261 104.016 26.2923C103.722 26.0422 103.357 25.8963 102.975 25.8765L101.596 25.6455C100.753 25.5645 99.9548 25.2159 99.3156 24.6487C99.0242 24.3339 98.7989 23.9618 98.6534 23.5552C98.5079 23.1487 98.4452 22.7162 98.4692 22.2841C98.4692 20.1421 100.029 18.6413 102.573 18.6413C103.267 18.5952 103.963 18.6964 104.617 18.9383C105.271 19.1802 105.868 19.5577 106.371 20.0469ZM191.791 18.7309V26.6717C191.779 27.0612 191.844 27.4491 191.983 27.8125C192.121 28.1758 192.329 28.5072 192.595 28.7869C192.861 29.0667 193.18 29.2891 193.532 29.441C193.884 29.5929 194.263 29.6712 194.645 29.6712C195.028 29.6712 195.406 29.5929 195.758 29.441C196.11 29.2891 196.429 29.0667 196.695 28.7869C196.961 28.5072 197.17 28.1758 197.308 27.8125C197.446 27.4491 197.511 27.0612 197.499 26.6717V18.7309H198.753V26.7753C198.767 27.3245 198.669 27.8706 198.465 28.3792C198.261 28.8878 197.956 29.3479 197.57 29.7306C197.183 30.1133 196.722 30.4103 196.217 30.6028C195.712 30.7953 195.174 30.8793 194.636 30.8493C194.099 30.8798 193.562 30.7965 193.059 30.6047C192.556 30.413 192.098 30.117 191.713 29.7354C191.327 29.3538 191.024 28.895 190.822 28.3879C190.62 27.8808 190.523 27.3365 190.538 26.7893V18.7309H191.791ZM142.538 22.4633H140.198C140.134 21.9793 139.896 21.5369 139.529 21.222C139.163 20.9071 138.695 20.7423 138.215 20.7595C137.942 20.7449 137.669 20.7936 137.416 20.902C137.164 21.0104 136.938 21.1756 136.758 21.3853C136.284 21.9047 136.181 22.4409 136.181 24.7677C136.181 27.0959 136.284 27.6377 136.758 28.1585C136.939 28.368 137.164 28.533 137.416 28.6412C137.669 28.7493 137.942 28.7978 138.215 28.7829C138.699 28.7973 139.171 28.6267 139.538 28.3047C139.905 27.9827 140.14 27.5326 140.198 27.0427H142.531C142.422 28.1192 141.912 29.1122 141.107 29.8178C140.301 30.5233 139.261 30.8879 138.2 30.8367L138.209 30.8507C137.62 30.864 137.035 30.7541 136.489 30.5277C135.944 30.3014 135.45 29.9634 135.037 29.5347C134.544 29.0483 134.209 28.4202 134.076 27.7343C133.922 26.7512 133.856 25.756 133.878 24.7607C133.856 23.7653 133.922 22.7699 134.074 21.7857C134.205 21.0969 134.541 20.4655 135.036 19.9797C135.451 19.5541 135.945 19.2181 136.491 18.992C137.036 18.7659 137.62 18.6542 138.209 18.6637C139.271 18.6113 140.312 18.9762 141.118 19.6833C141.923 20.3903 142.432 21.3854 142.538 22.4633ZM95.1894 19.8747C96.5085 21.2285 96.3765 22.8497 96.3765 24.6865C96.3765 26.5233 96.5071 28.2411 95.188 29.5865L95.21 29.5571C94.7928 29.9571 94.301 30.2678 93.7639 30.4708C93.2267 30.6737 92.6551 30.7648 92.0827 30.7387H87.8535V18.7309H92.0827C92.6487 18.7041 93.2144 18.7913 93.7472 18.9875C94.2801 19.1838 94.7711 19.4853 95.1894 19.8747ZM273.976 18.7309L276.752 24.4779L279.494 18.7309H280.85L277.379 25.7799V30.7317H276.119V25.7799L272.619 18.7309H273.976ZM215.165 18.7309V30.7317H213.91V18.7309H215.165ZM270.964 18.7309V19.8747H267.56V30.7317H266.306V19.8747H262.901V18.7309H270.964ZM203.121 18.7309L209.369 28.3223V18.7309H210.622V30.7317H209.434L203.186 21.1095V30.7317H201.933V18.7309H203.121ZM242.882 18.7309C244.93 18.7309 246.367 19.9937 246.367 22.0685C246.403 22.8317 246.161 23.5814 245.689 24.1751C245.217 24.7688 244.548 25.1651 243.808 25.2885L246.637 30.7317L245.128 30.7093L242.451 25.3851H239.624V30.7093H238.369V18.7309H242.882ZM163.95 18.7309V20.8197H158.489V23.6379H163.142V25.7267H158.489V28.6415H163.95V30.7317H156.193V18.7309H163.95ZM260.481 18.7309V30.7317H259.227V18.7309H260.481ZM85.4187 18.7309V20.8197H79.9584V23.6379H84.6094V25.7267H79.9584V28.6415H85.4187V30.7317H77.6624V18.7309H85.4187ZM174.281 18.7309V20.8197H171.203V30.7317H168.908V20.8197H165.831V18.7309H174.281ZM147.03 18.7309V23.9571L151.178 18.7309H153.977L150.069 23.5049L154.254 30.7317H151.579L148.554 25.2731L147.028 27.1253V30.7317H144.734V18.7309H147.028H147.03ZM60.0049 18.7309V28.6429H65.3415V30.7317H57.7089V18.7309H60.0049ZM218.722 18.7309L221.783 28.4413L224.839 18.7309H226.165L222.295 30.7317H221.267L217.403 18.7309H218.722ZM131.953 18.7309V20.8197H126.501V23.6379H131.145V25.7267H126.501V28.6415H131.953V30.7317H124.203V18.7309H131.953ZM235.723 18.7309V19.8747H229.672V24.1069H234.834V25.2591H229.672V29.5851H235.723V30.7317H228.419V18.7309H235.723ZM117.905 18.7309C120.201 18.7309 121.55 20.0469 121.55 22.1049C121.554 22.6146 121.42 23.1155 121.163 23.5526C120.906 23.9898 120.535 24.3463 120.092 24.5829C120.599 24.812 121.025 25.1928 121.314 25.6747C121.603 26.1566 121.742 26.7168 121.711 27.2807C121.711 29.5123 120.209 30.7317 118.109 30.7317H113.174V18.7309H117.905ZM184.414 18.7309V20.8197H181.336V30.7317H179.042V20.8197H175.972V18.7309H184.414ZM75.2276 18.7309V20.8197H69.7673V23.6379H74.4183V25.7267H69.7673V28.6415H75.2276V30.7317H67.4699V18.7309H75.2276ZM117.868 25.6973H115.47V28.6723H117.868C118.255 28.6723 118.626 28.5156 118.9 28.2367C119.174 27.9577 119.328 27.5794 119.328 27.1848C119.328 26.7903 119.174 26.412 118.9 26.133C118.626 25.8541 118.255 25.6973 117.868 25.6973ZM91.8849 20.8197H90.1509V28.6191H91.8863C92.543 28.6653 93.1806 28.3895 93.6065 27.8771C94.0366 27.3339 94.1012 26.4771 94.1012 24.6571C94.1012 22.8343 94.0366 22.0769 93.6065 21.5337V21.5631C93.3978 21.3096 93.1331 21.11 92.8341 20.9808C92.5351 20.8515 92.2089 20.7964 91.8849 20.8197ZM242.766 19.8537V19.8747H239.624V24.2777H242.765C244.136 24.2777 245.113 23.5343 245.113 22.0839C245.113 20.6335 244.137 19.8537 242.766 19.8537ZM117.722 20.8197H115.469V23.5861H117.722C117.976 23.6134 118.233 23.5673 118.463 23.453C118.692 23.3387 118.886 23.1608 119.021 22.9398C119.157 22.7187 119.228 22.4633 119.228 22.2028C119.227 21.9423 119.155 21.6872 119.019 21.4665C118.884 21.2458 118.691 21.0681 118.461 20.9537C118.232 20.8394 117.976 20.793 117.722 20.8197Z" fill="black"/>
<path d="M24.1483 27.73H21.6833V24.3H24.1483C24.369 24.2781 24.5917 24.3065 24.8003 24.383C25.009 24.4595 25.1983 24.5822 25.3547 24.7424C25.679 25.07 25.8549 25.532 25.837 26.008C25.8521 26.484 25.6762 26.946 25.3534 27.275C25.1974 27.4359 25.0086 27.5599 24.8003 27.6383C24.5921 27.7167 24.3695 27.7489 24.1483 27.73ZM21.6833 19.6618H24.0192C24.6031 19.5946 25.1706 19.89 25.4811 20.422C25.793 20.954 25.793 21.6302 25.4811 22.1622C25.1706 22.6942 24.6031 22.9896 24.0206 22.9224H21.682V19.6618H21.6833ZM26.0307 23.8366L25.4454 23.5552L26.0307 23.2668C26.7521 22.865 27.2028 22.0656 27.1987 21.1948C27.1987 19.3804 26.0775 18.2968 24.1951 18.2968H20.187V29.0936H24.3586C26.2176 29.0936 27.3333 27.9792 27.3333 26.12C27.3883 25.1414 26.8689 24.23 26.0307 23.8366ZM14.1097 27.604V19.7864H15.5071V26.2432H18.7581V27.604H14.1097ZM31.8085 27.5998C31.4591 27.6209 31.1092 27.5662 30.7821 27.4392C30.455 27.3123 30.1581 27.116 29.911 26.8634C29.6571 26.6037 29.4567 26.2949 29.3217 25.9552C29.1868 25.6155 29.1199 25.2516 29.125 24.8852V19.7864H30.5458V24.8222C30.5286 25.0658 30.5759 25.3097 30.6827 25.5283C30.7895 25.747 30.952 25.9325 31.1531 26.0654C31.3498 26.1935 31.5784 26.2617 31.8119 26.2617C32.0454 26.2617 32.2741 26.1935 32.4708 26.0654C32.6717 25.9323 32.8338 25.7467 32.9404 25.5281C33.047 25.3094 33.0941 25.0657 33.0767 24.8222V19.7864H34.4878V24.8782C34.493 25.244 34.4264 25.6072 34.2919 25.9464C34.1574 26.2856 33.9577 26.594 33.7046 26.8536C33.1963 27.3688 32.5092 27.6376 31.8099 27.5928" fill="black"/>
<path d="M24.1264 9.2348C18.4338 9.232 13.3019 12.8006 11.1213 18.276C8.94209 23.7514 10.1444 30.0556 14.1689 34.2472C18.192 38.4402 24.2446 39.6946 29.5029 37.4266C34.7627 35.1586 38.1909 29.8162 38.1909 23.8886C38.184 15.8008 31.8924 9.2446 24.1264 9.2348ZM24.1264 39.8892C17.9076 39.892 12.3002 35.993 9.91902 30.0108C7.53922 24.0286 8.85415 17.142 13.251 12.5626C17.6479 7.9846 24.261 6.6154 30.0058 9.0934C35.7492 11.5728 39.4934 17.4122 39.4921 23.8886C39.4811 32.7226 32.6082 39.878 24.1264 39.8892ZM32.2894 0.995797C29.4864 0.323797 26.0528 1.602 26.0528 1.602C25.4405 1.83173 24.7925 1.94652 24.1401 1.9408C23.4777 1.96029 22.8173 1.8559 22.1918 1.6328C22.1918 1.6328 18.7595 0.323797 15.9551 1.0266C15.9551 1.0266 13.2002 1.5656 13.8528 5.2686C13.8528 5.2686 14.0012 2.3846 17.5064 2.3902C17.5064 2.3902 18.8186 2.3342 21.5693 3.6376C21.8222 3.7706 22.0846 3.8868 22.3525 3.9834C22.5312 4.0436 22.7208 4.0982 22.9461 4.1472L23.1371 4.1892C23.2209 4.2074 23.3061 4.22 23.3927 4.2256C23.8983 4.3026 24.4122 4.3026 24.9178 4.2256L25.1624 4.1276L25.3877 4.08H25.4839C25.62 4.045 25.7546 4.0016 25.8865 3.954C26.1572 3.856 26.421 3.7398 26.6766 3.6082C29.4205 2.3062 30.7341 2.3594 30.7341 2.3594C34.2378 2.3594 34.3862 5.2378 34.3862 5.2378C35.0402 1.56 32.284 0.995797 32.284 0.995797M0.186834 24.7594C0.560567 21.7662 2.96098 18.8738 2.96098 18.8738C3.39655 18.3614 3.73868 17.7678 3.97226 17.1252C4.2031 16.4854 4.32264 15.8064 4.32676 15.1232C4.32676 15.1232 4.32676 11.283 5.94123 8.7826C5.94123 8.7826 7.40182 6.2934 10.536 8.2534C10.536 8.2534 7.85112 7.3518 6.62 10.786C6.62 10.786 6.11161 12.0306 6.32596 15.2156C6.36031 15.5152 6.37405 15.8176 6.36718 16.1172C6.36202 16.3256 6.34597 16.5335 6.31909 16.7402C6.31909 16.8088 6.31909 16.8774 6.29023 16.939L6.23665 17.2064C6.11985 17.7286 5.93436 18.2312 5.68704 18.7002C5.65131 18.7674 5.61559 18.836 5.57437 18.9046L5.45071 19.1104C5.42912 19.136 5.40937 19.1631 5.39162 19.1916C5.31134 19.3147 5.22418 19.4329 5.13056 19.5458C4.94767 19.7664 4.75027 19.9741 4.53973 20.1674C2.39351 22.42 1.96069 23.7262 1.96069 23.7262C0.719954 27.1548 3.30311 28.349 3.30311 28.349C-0.267967 27.6518 0.186834 24.7594 0.186834 24.7594ZM48.0714 24.7846C47.6977 21.7886 45.2877 18.8906 45.2877 18.8906C44.8603 18.3712 44.5267 17.7787 44.3025 17.1406C44.0638 16.499 43.9396 15.8191 43.9356 15.133C43.9356 15.133 43.9356 11.29 42.3143 8.784C42.3143 8.784 40.8496 6.292 37.7045 8.2548C37.7045 8.2548 40.4044 7.3518 41.6328 10.7902C41.6328 10.7902 42.1494 12.0362 41.9296 15.2282C41.8884 15.5264 41.8677 15.8288 41.8705 16.1312C41.8705 16.3244 41.8705 16.5358 41.9172 16.7542V16.953C41.9172 17.016 41.9529 17.128 41.9763 17.2204C42.0903 17.744 42.2731 18.248 42.5232 18.717L42.6358 18.9214L42.7664 19.1272L42.8199 19.2084C42.8996 19.3316 42.9876 19.4506 43.081 19.564C43.2651 19.7852 43.463 19.9938 43.6746 20.187C45.84 22.4116 46.2495 23.7192 46.2495 23.7192C47.4957 27.1534 44.903 28.349 44.903 28.349C48.5098 27.6518 48.0234 24.7538 48.0234 24.7538M4.13165 37.6604C6.13497 39.8752 9.74864 40.7516 9.74864 40.7516C11.0467 41.0841 12.1881 41.8723 12.9721 42.9776C12.9721 42.9776 15.1499 46.108 17.8856 47.1594C17.8856 47.1594 20.5072 48.3046 21.9747 44.7556C21.9747 44.7556 20.2668 47.1524 17.3209 45.1056C17.3209 45.1056 16.1777 44.3874 14.5728 41.6714C14.4341 41.4054 14.2774 41.1506 14.1029 40.907C13.984 40.7374 13.8536 40.5765 13.7127 40.4254L13.5739 40.2812L13.3816 40.0992C12.999 39.7418 12.5677 39.4428 12.101 39.2116L11.8894 39.1122L11.6668 39.024L11.5706 38.9862C11.4371 38.9362 11.3008 38.8942 11.1625 38.8602C10.8774 38.7929 10.5882 38.7452 10.2969 38.7174C7.28915 38.2288 6.18856 37.4224 6.18856 37.4224C3.23029 35.3826 4.69087 32.8164 4.69087 32.8164C2.11733 35.6024 4.14401 37.673 4.14401 37.673M44.0978 37.6604C42.1055 39.8752 38.4973 40.7516 38.4973 40.7516C37.1898 41.0771 36.0389 41.8662 35.2505 42.9776C35.2505 42.9776 33.0768 46.108 30.3452 47.1594C30.3452 47.1594 27.7291 48.3046 26.2644 44.7556C26.2644 44.7556 27.9682 47.1524 30.9168 45.1056C30.9168 45.1056 32.0504 44.3874 33.6539 41.6714C33.7913 41.4054 33.9506 41.1492 34.1279 40.907C34.2419 40.7516 34.3738 40.5878 34.5181 40.4254C34.5607 40.375 34.6074 40.3274 34.6555 40.2812L34.8479 40.0992C35.2353 39.7436 35.6709 39.4468 36.1395 39.2172L36.3483 39.1192L36.5709 39.031L36.6671 38.9932C36.913 38.905 37.0752 38.8672 37.0752 38.8672C37.3655 38.7967 37.6602 38.7467 37.9573 38.7174C40.9581 38.2288 42.056 37.4224 42.056 37.4224C45.0101 35.3826 43.5509 32.8164 43.5509 32.8164C46.1203 35.6024 44.0978 37.673 44.0978 37.673M24.2954 49.5688L25.5499 41.0064H24.2954H23.0478L24.2954 49.5688ZM47.7142 31.6992L40.2904 27.6042L39.8933 28.923L39.4921 30.2404L47.7142 31.6992ZM0.526217 31.6992L7.94867 27.6042L8.35126 28.923L8.74835 30.2404L0.526217 31.6992ZM38.7762 2.6618L34.8149 10.4794L33.7569 9.673L32.6989 8.8708L38.7762 2.6618ZM9.46285 2.6618L13.4255 10.4794L14.4835 9.673L15.5401 8.8708L9.46285 2.6618Z" fill="black"/>
</g>
<defs>
<clipPath id="clip0_545_110">
<rect width="281.674" height="49" fill="white" transform="translate(0 0.5)"/>
</clipPath>
</defs>
</svg>
