<svg width="93" height="60" viewBox="0 0 93 60" fill="none" xmlns="http://www.w3.org/2000/svg">
<path d="M47.481 28.8702L46.257 22.6059L45.6858 22.531V21.5719H47.9468V22.531L47.3654 22.648L47.9672 26.0538L48.0658 26.6105L48.0862 26.6152L48.1984 26.0491L49.2388 21.5719H50.0718L51.1598 26.2129L51.2618 26.6573H51.2822L51.3706 26.2129L51.9996 22.6433L51.3944 22.5263V21.5673H53.6146V22.5263L53.074 22.6012L51.8126 28.8655H50.7586L49.7998 24.8468L49.6808 24.2854H49.6604L49.5176 24.8702L48.5452 28.8655H47.481V28.8702Z" fill="#1F375F"/>
<path d="M56.0796 28.9778C55.7192 28.9778 55.386 28.8842 55.0868 28.7017C54.7876 28.5193 54.5258 28.2573 54.3082 27.9251C54.0872 27.593 53.9206 27.2 53.8016 26.7509C53.6826 26.3017 53.6248 25.8105 53.6248 25.2819V25.1649C53.6248 24.6362 53.6826 24.1497 53.8016 23.7006C53.9206 23.2515 54.0872 22.8631 54.3048 22.5263C54.5224 22.1941 54.7808 21.9322 55.08 21.745C55.3792 21.5579 55.709 21.469 56.0694 21.469C56.4298 21.469 56.763 21.5626 57.0622 21.745C57.3648 21.9322 57.6266 22.1895 57.8476 22.5263C58.072 22.8585 58.2454 23.2515 58.3678 23.7006C58.4902 24.1497 58.5514 24.6362 58.5514 25.1649V25.2819C58.5514 25.8152 58.4902 26.3017 58.3678 26.7509C58.2454 27.2 58.072 27.593 57.851 27.9251C57.63 28.2573 57.3682 28.5193 57.0656 28.7017C56.763 28.8842 56.4366 28.9778 56.0796 28.9778ZM56.0796 27.7427C56.3652 27.7427 56.6032 27.6398 56.797 27.4339C56.9908 27.2281 57.1404 26.9427 57.239 26.5731C57.341 26.2035 57.3886 25.7731 57.3886 25.2772V25.1509C57.3886 24.6643 57.3376 24.2433 57.2356 23.8737C57.1336 23.5088 56.984 23.2234 56.7902 23.0129C56.5964 22.807 56.355 22.7041 56.0694 22.7041C55.7804 22.7041 55.5424 22.807 55.352 23.0082C55.1616 23.214 55.0222 23.4947 54.9304 23.8643C54.8386 24.2292 54.791 24.6596 54.791 25.1509V25.2772C54.791 25.7684 54.8386 26.1988 54.9304 26.5684C55.0222 26.938 55.165 27.2281 55.3554 27.4339C55.5492 27.6398 55.7906 27.7427 56.0796 27.7427Z" fill="#1F375F"/>
<path d="M61.5672 28.9778C61.2068 28.9778 60.8736 28.8842 60.5744 28.7017C60.2752 28.5193 60.0134 28.2573 59.7958 27.9251C59.5748 27.593 59.4082 27.2 59.2892 26.7509C59.1702 26.3017 59.1124 25.8105 59.1124 25.2819V25.1649C59.1124 24.6362 59.1702 24.1497 59.2892 23.7006C59.4082 23.2515 59.5748 22.8631 59.7924 22.5263C60.01 22.1941 60.2684 21.9322 60.5676 21.745C60.8668 21.5579 61.1966 21.469 61.557 21.469C61.9174 21.469 62.2506 21.5626 62.5498 21.745C62.8524 21.9322 63.1142 22.1895 63.3352 22.5263C63.5596 22.8585 63.733 23.2515 63.8554 23.7006C63.9778 24.1497 64.039 24.6362 64.039 25.1649V25.2819C64.039 25.8152 63.9778 26.3017 63.8554 26.7509C63.733 27.2 63.5596 27.593 63.3386 27.9251C63.1176 28.2573 62.8558 28.5193 62.5532 28.7017C62.254 28.8842 61.9242 28.9778 61.5672 28.9778ZM61.5672 27.7427C61.8528 27.7427 62.0908 27.6398 62.2846 27.4339C62.4784 27.2281 62.628 26.9427 62.7266 26.5731C62.8286 26.2035 62.8762 25.7731 62.8762 25.2772V25.1509C62.8762 24.6643 62.8252 24.2433 62.7232 23.8737C62.6212 23.5088 62.4716 23.2234 62.2778 23.0129C62.084 22.807 61.8426 22.7041 61.557 22.7041C61.268 22.7041 61.03 22.807 60.8396 23.0082C60.6492 23.2093 60.5098 23.4947 60.418 23.8643C60.3262 24.2292 60.2786 24.6596 60.2786 25.1509V25.2772C60.2786 25.7684 60.3262 26.1988 60.418 26.5684C60.5098 26.938 60.6526 27.2281 60.843 27.4339C61.0402 27.6398 61.2782 27.7427 61.5672 27.7427Z" fill="#1F375F"/>
<path d="M64.6544 28.8702V27.9158L65.212 27.7614V22.69L64.6544 22.5357V21.5766H65.212H66.385H67.0412V22.5357L66.385 22.69V27.6398H67.762L67.8028 26.5918H68.6936V28.8702H64.6544Z" fill="#1F375F"/>
<path d="M70.6589 28.8702L69.4349 22.6059L68.8636 22.531V21.5719H71.1247V22.531L70.5432 22.648L71.145 26.0538L71.2436 26.6105L71.2641 26.6152L71.3762 26.0491L72.4167 21.5719H73.2497L74.3376 26.2129L74.4397 26.6573H74.46L74.5484 26.2129L75.1775 22.6433L74.5723 22.5263V21.5673H76.7924V22.5263L76.2519 22.6012L74.9904 28.8655H73.9365L72.9776 24.8468L72.8586 24.2854H72.8382L72.6954 24.8702L71.723 28.8655H70.6589V28.8702Z" fill="#1F375F"/>
<path d="M77.5029 28.8702V27.9158L78.0605 27.7614V22.69L77.5029 22.5357V21.5766H79.7877V22.5357L79.2301 22.69V27.7661L79.7877 27.9205V28.8748H77.5029V28.8702Z" fill="#1F375F"/>
<path d="M83.147 28.9778C82.637 28.9778 82.1882 28.8327 81.8006 28.5427C81.413 28.2526 81.1104 27.8409 80.8928 27.3029C80.6752 26.7649 80.5698 26.124 80.5698 25.3707V25.076C80.5698 24.3743 80.6718 23.752 80.8724 23.2093C81.073 22.6667 81.3654 22.2409 81.7462 21.9322C82.1236 21.6234 82.5724 21.469 83.0926 21.469C83.4564 21.469 83.7998 21.5392 84.1262 21.6748C84.4492 21.8105 84.7484 22.0351 85.017 22.3485V24.1684H84.1534L84.0378 23.0737C83.9562 22.9988 83.8678 22.9286 83.776 22.8725C83.6842 22.8164 83.5856 22.7743 83.4768 22.7415C83.3714 22.7134 83.2558 22.6947 83.13 22.6947C82.8444 22.6947 82.5996 22.7883 82.3922 22.9801C82.1848 23.1719 82.0216 23.4433 81.9094 23.7941C81.7972 24.145 81.7394 24.5707 81.7394 25.0667V25.3707C81.7394 25.8479 81.7972 26.2643 81.9128 26.6245C82.0284 26.9801 82.195 27.2608 82.4092 27.4573C82.6234 27.6538 82.875 27.752 83.164 27.752C83.3136 27.752 83.4598 27.7286 83.6128 27.6865C83.7624 27.6398 83.9052 27.5836 84.0344 27.5088L84.1534 26.4795H85.0136V28.2667C84.8062 28.4585 84.541 28.6269 84.2248 28.7672C83.9052 28.9076 83.5482 28.9778 83.147 28.9778Z" fill="#1F375F"/>
<path d="M85.8738 28.8702V27.9158L86.4314 27.7614V22.69L85.8738 22.5357V21.5766H88.162V22.5357L87.6044 22.69V24.6643H89.6478V22.69L89.0902 22.5357V21.5766H89.6478H90.8174H91.375V22.5357L90.8174 22.69V27.7661L91.375 27.9205V28.8748H89.0902V27.9205L89.6478 27.7661V25.8994H87.6044V27.7661L88.162 27.9205V28.8748H85.8738V28.8702Z" fill="#1F375F"/>
<path d="M45.7742 39.2749V38.3205L46.3318 38.1661V33.0901L45.7742 32.9357V31.9766H48.059V32.9357L47.5014 33.0901V38.1661L48.059 38.3205V39.2749H45.7742Z" fill="#1F375F"/>
<path d="M49.1504 39.2749V38.3205L49.708 38.1661V33.0901L49.1504 32.9357V31.9766H49.708H50.898L53.1148 36.8421L53.1352 36.8374V33.0901L52.445 32.9357V31.9766H54.1756H54.74V32.9357L54.1824 33.0901V39.2749H53.0366L50.7756 34.4842L50.7552 34.4889V38.1661L51.4488 38.3205V39.2749H49.1504Z" fill="#1F375F"/>
<path d="M57.9938 39.3777C57.5824 39.3777 57.2152 39.3216 56.8854 39.2047C56.559 39.0877 56.2326 38.8772 55.913 38.5731V36.7392H56.8174L56.9296 37.745C57.0214 37.8666 57.1642 37.9696 57.358 38.0491C57.5518 38.1286 57.7626 38.1707 57.9904 38.1707C58.1706 38.1707 58.3202 38.138 58.4392 38.0772C58.5582 38.0117 58.65 37.9228 58.7112 37.8011C58.7724 37.6795 58.803 37.5345 58.803 37.3661C58.803 37.207 58.7758 37.062 58.718 36.9403C58.6602 36.8187 58.5684 36.7017 58.4392 36.5941C58.31 36.4865 58.1332 36.3789 57.9122 36.2713C57.4736 36.0889 57.1132 35.8924 56.831 35.6865C56.5454 35.4807 56.3346 35.2374 56.1952 34.9567C56.0558 34.676 55.9844 34.3298 55.9844 33.9228C55.9844 33.5204 56.066 33.1696 56.2292 32.8701C56.3924 32.5661 56.6202 32.3275 56.9058 32.1544C57.1948 31.9813 57.5246 31.8924 57.8952 31.883C58.3168 31.869 58.6908 31.9298 59.0138 32.0701C59.3368 32.2058 59.619 32.4023 59.8638 32.6596V34.3625H58.99L58.8472 33.3707C58.7588 33.3052 58.6398 33.2444 58.4834 33.1883C58.327 33.1368 58.157 33.1087 57.9734 33.1087C57.8136 33.1087 57.6708 33.1415 57.5484 33.2023C57.426 33.2631 57.3308 33.3567 57.2594 33.4737C57.188 33.5953 57.154 33.745 57.154 33.9181C57.154 34.0631 57.1846 34.1894 57.2424 34.3017C57.3002 34.414 57.4056 34.5263 57.5552 34.6292C57.7014 34.7368 57.9088 34.8491 58.1706 34.9754C58.7622 35.2093 59.2144 35.5087 59.5204 35.8783C59.8298 36.2479 59.9828 36.7345 59.9828 37.3473C59.9828 37.7731 59.8978 38.1333 59.7312 38.4374C59.5646 38.7415 59.33 38.9707 59.0308 39.1298C58.7418 39.2982 58.3916 39.3777 57.9938 39.3777Z" fill="#1F375F"/>
<path d="M62.2812 39.2748V38.3204L62.8422 38.1661V33.221H61.9514L61.9038 34.0538H61.0232V31.9813H65.8478V34.0538H64.9604L64.9128 33.221H64.0152V38.1661L64.5762 38.3204V39.2748H62.2812Z" fill="#1F375F"/>
<path d="M66.8712 39.2749V38.3205L67.4288 38.1661V33.0901L66.8712 32.9357V31.9766H69.156V32.9357L68.5984 33.0901V38.1661L69.156 38.3205V39.2749H66.8712Z" fill="#1F375F"/>
<path d="M71.4442 39.2748V38.3204L72.0052 38.1661V33.221H71.1144L71.0668 34.0538H70.1862V31.9813H75.0108V34.0538H74.1234L74.0758 33.221H73.1782V38.1661L73.7392 38.3204V39.2748H71.4442Z" fill="#1F375F"/>
<path d="M78.71 39.3778C78.2748 39.3778 77.8906 39.2795 77.5608 39.0784C77.231 38.8772 76.976 38.5825 76.7958 38.1941C76.6156 37.8058 76.5238 37.338 76.5238 36.786V33.0854L75.9696 32.931V31.9719H78.2544V32.931L77.6968 33.0854V36.786C77.6968 37.0947 77.7376 37.3474 77.8158 37.5485C77.8974 37.7497 78.0096 37.8994 78.1626 37.9977C78.3122 38.0959 78.4924 38.1474 78.7066 38.1474C78.9242 38.1474 79.1112 38.0959 79.2608 37.9977C79.4138 37.8994 79.5294 37.7497 79.6076 37.5485C79.6892 37.3474 79.7266 37.0901 79.7266 36.786V33.0854L79.1724 32.931V31.9719H81.4572V32.931L80.8996 33.0854V36.786C80.8996 37.3333 80.8078 37.8012 80.6242 38.1895C80.4406 38.5778 80.1822 38.8725 79.8558 39.0737C79.5294 39.2795 79.1486 39.3778 78.71 39.3778Z" fill="#1F375F"/>
<path d="M83.6774 39.2748V38.3204L84.2384 38.1661V33.221H83.3476L83.3 34.0538H82.4194V31.9813H87.244V34.0538H86.3566L86.309 33.221H85.4114V38.1661L85.9724 38.3204V39.2748H83.6774Z" fill="#1F375F"/>
<path d="M88.2708 39.2749V38.3205L88.8284 38.1661V33.0901L88.2708 32.9357V31.9766H92.4494V34.0164H91.5586L91.5144 33.2164H89.998V34.8866H91.7388V36.1263H89.998V38.0398H91.5926L91.6334 37.207H92.5106V39.2749H88.2708Z" fill="#1F375F"/>
<path d="M47.2023 17.9275V17.2959L47.7973 17.1555V11.3777H46.5971L46.4917 12.3883H45.951V10.6292H50.3575V12.3883H49.8271L49.7183 11.3777H48.5181V17.1555L49.1131 17.2959V17.9275H47.2023Z" fill="#1F375F"/>
<path d="M51.2415 17.9277V17.2961L51.8365 17.1558V11.4108L51.2415 11.2704V10.6342H53.1455V11.2704L52.5505 11.4108V13.9324H55.0869V11.4108L54.4919 11.2704V10.6342H55.0869H55.8043H56.3993V11.2704L55.8043 11.4108V17.1605L56.3993 17.3008V17.9324H54.4953V17.3008L55.0903 17.1605V14.709H52.5539V17.1605L53.1489 17.3008V17.9324H51.2415V17.9277Z" fill="#1F375F"/>
<path d="M57.2119 17.9277V17.2961L57.8069 17.1558V11.4108L57.2119 11.2704V10.6342H61.1389V12.3885H60.5643L60.4827 11.3967H58.5243V13.7733H60.4793V14.5499H58.5243V17.1932H60.6017L60.6833 16.1874H61.2545V17.9371H57.2119V17.9277Z" fill="#1F375F"/>
<path d="M34.8398 1.52996C25.8706 -0.500447 16.7246 -0.509804 7.75198 1.49721L2.67578 2.62938C2.67578 2.62938 2.67578 17.6563 2.67578 27.958C2.67578 45.6563 21.2976 60.0001 21.2976 60.0001C21.2976 60.0001 39.9194 45.6516 39.9194 27.958C39.9194 10.2645 39.9194 2.67616 39.9194 2.67616L34.8398 1.52996Z" fill="#1F375F"/>
<path d="M12.393 43.4953V42.6672L13.0118 42.5081V36.721H11.8694L11.7844 37.7175H11.05V35.6871H15.9664V37.7175H15.2252L15.1402 36.721H13.9978V42.5081L14.6166 42.6672V43.4953H12.393Z" fill="white"/>
<path d="M20.2573 43.4947L18.9347 36.5988L18.3975 36.5192V35.6865H20.4953V36.5192L19.8901 36.6409L20.5871 40.6502L20.7299 41.4689L20.7537 41.4736L20.9339 40.6455L22.0627 35.6771H22.8311L23.9939 40.7251L24.1639 41.5251H24.1877L24.3407 40.7251L25.0513 36.6315L24.4121 36.5099V35.6771H26.4691V36.5099L25.9659 36.5894L24.6603 43.4853H23.7559L22.6135 38.5684L22.4707 37.8619H22.4469L22.2939 38.5824L21.1447 43.49H20.2573V43.4947Z" fill="white"/>
<path d="M28.3595 43.4953V42.6672L28.9783 42.5081V36.6789L28.3595 36.5198V35.6871H30.5763V36.5198L29.9609 36.6789V42.5081L30.5763 42.6672V43.4953H28.3595Z" fill="white"/>
<path d="M13.9026 8.36023H2.6758H0V41.0433H5.8718C5.6542 40.5848 5.4434 40.1263 5.2428 39.6585H1.0064V9.74502H2.6758H13.9026C16.5478 9.74502 18.8632 11.7006 20.1314 14.6199H21.2772C19.9138 10.9099 17.1224 8.36023 13.9026 8.36023Z" fill="#C7202F"/>
<path d="M39.9228 8.36023H28.696C25.4762 8.36023 22.6814 10.9099 21.3214 14.6199H22.4672C23.7354 11.7053 26.0508 9.74502 28.696 9.74502H39.9228H41.5922V39.6585H37.3524C37.1518 40.1263 36.941 40.5895 36.7234 41.0433H42.5952V8.36023H39.9228Z" fill="#C7202F"/>
<path d="M21.4336 14.1193C18.5674 14.1193 16.1874 17.0479 15.793 20.8467L13.3382 21.5813L7.64998 26.4327L5.14758 26.6526V28.4257L8.19398 28.6737L14.0046 24.8093L16.0242 24.421C16.7756 27.5462 18.9176 29.8058 21.4336 29.8058C24.5752 29.8058 27.132 26.2877 27.132 21.9649C27.132 17.6421 24.5752 14.1193 21.4336 14.1193ZM17.6086 19.4432L19.839 21.3614L17.2108 21.4082C17.2584 20.7204 17.391 20.0655 17.6086 19.4432ZM17.9792 18.5777C18.2682 18.0163 18.6252 17.5391 19.0366 17.1508L20.2708 20.3462L17.9792 18.5777ZM19.6724 16.6549C20.1246 16.3696 20.6074 16.2011 21.1072 16.145L21.0154 19.7614L19.6724 16.6549ZM23.2526 16.6924L21.8688 19.7567L21.8382 16.1544C22.3312 16.2198 22.8072 16.3976 23.2526 16.6924ZM23.8816 17.2023C24.2896 17.6 24.6398 18.0865 24.922 18.6526L22.6032 20.3602L23.8816 17.2023ZM17.2074 22.414L19.8356 22.5403L17.578 24.3883C17.3672 23.7614 17.2448 23.1017 17.2074 22.414ZM17.9384 25.2631L20.2606 23.5602L18.9754 26.7134C18.5674 26.3158 18.2206 25.8292 17.9384 25.2631ZM19.6078 27.228L20.9984 24.1544L21.0324 27.7707C20.536 27.7052 20.0566 27.5228 19.6078 27.228ZM20.8658 21.9602C20.8658 21.5298 21.1208 21.1836 21.4302 21.1836C21.743 21.1836 21.9946 21.5345 21.9946 21.9602C21.9946 22.3906 21.7396 22.7368 21.4302 22.7368C21.1208 22.7415 20.8658 22.3906 20.8658 21.9602ZM21.7668 27.7754L21.8552 24.159L23.2016 27.2655C22.746 27.5508 22.2632 27.7239 21.7668 27.7754ZM23.834 26.7649L22.5964 23.5696L24.888 25.3333C24.599 25.8994 24.2454 26.3766 23.834 26.7649ZM25.2586 24.4678L23.0248 22.5544L25.653 22.5029C25.6054 23.1906 25.4762 23.8503 25.2586 24.4678ZM23.0282 21.3801L25.2858 19.5275C25.4932 20.1497 25.619 20.814 25.6598 21.497L23.0282 21.3801Z" fill="white"/>
<path d="M35.3124 14.7742C35.275 14.3158 35.19 13.9508 35.1186 13.9602C35.1152 13.9602 35.1118 13.9649 35.1084 13.9649C35.1084 13.9649 34.4794 13.1181 34.4012 13.1275C34.323 13.1368 34.255 13.1976 34.1938 13.2912L33.8334 13.7684L24.7418 15.1158C25.4796 15.7941 26.1052 16.697 26.5608 17.7497L34.0102 16.1965L34.4624 16.5988C34.527 16.6549 34.5916 16.683 34.6596 16.6737C34.7752 16.6596 35.2376 15.621 35.2376 15.621C35.241 15.621 35.2444 15.621 35.2478 15.621C35.3226 15.6163 35.3498 15.2374 35.3124 14.7742Z" fill="white"/>
<path d="M10.8936 20.0936C11.1962 20.0281 11.441 19.8222 11.5702 19.5602L12.0258 19.462C12.2196 20.5053 12.6446 21.2304 13.0492 21.1509C13.26 21.1088 13.4266 20.8561 13.5388 20.4772L15.6264 20.0421C15.8814 18.5918 16.4118 17.2912 17.1428 16.2526L13.1376 16.8421C12.9574 16.5427 12.75 16.3789 12.5494 16.421C12.1312 16.5053 11.8728 17.4175 11.9204 18.5403L11.4512 18.6433C11.271 18.4608 10.9956 18.3766 10.7032 18.4374C10.2306 18.5403 9.88718 18.9941 9.94158 19.4479C9.99258 19.9064 10.421 20.1965 10.8936 20.0936Z" fill="white"/>
<path d="M45.8932 49.7359V48.833L46.4814 48.6645V43.3219L45.8932 43.1488V42.2411H46.4814H48.2834C48.7696 42.2411 49.198 42.4002 49.572 42.7137C49.9426 43.0271 50.235 43.4622 50.4424 44.0142C50.6498 44.5663 50.7552 45.2026 50.7552 45.923V46.0634C50.7552 46.7745 50.6532 47.4061 50.4458 47.9628C50.2384 48.5148 49.9528 48.9499 49.5822 49.268C49.2116 49.5862 48.7866 49.7406 48.3004 49.7406H45.8932V49.7359ZM47.5728 48.5897H48.2426C48.5452 48.5897 48.8002 48.4821 49.011 48.2622C49.2218 48.0423 49.3816 47.7429 49.4904 47.364C49.6026 46.985 49.657 46.5499 49.657 46.0634V45.9183C49.657 45.4224 49.6026 44.9873 49.4904 44.6084C49.3782 44.2295 49.2184 43.93 49.011 43.7195C48.8002 43.5043 48.5452 43.3967 48.2426 43.3967H47.5728V48.5897Z" fill="#1F375F"/>
<path d="M53.924 49.8435C53.4922 49.8435 53.1114 49.7406 52.785 49.5347C52.4586 49.3289 52.2036 49.0295 52.02 48.6411C51.8364 48.2482 51.748 47.7757 51.748 47.2142V43.3031L51.1666 43.1488V42.2411H53.4242V43.1488L52.8394 43.3031V47.2142C52.8394 47.5417 52.8836 47.8178 52.972 48.0376C53.0604 48.2575 53.1828 48.4213 53.346 48.5289C53.5092 48.6365 53.703 48.6926 53.9274 48.6926C54.1552 48.6926 54.3524 48.6365 54.5156 48.5289C54.6788 48.4213 54.8046 48.2575 54.893 48.0376C54.9814 47.8178 55.0222 47.5417 55.0222 47.2142V43.3031L54.4408 43.1488V42.2411H56.6984V43.1488L56.1136 43.3031V47.2142C56.1136 47.7757 56.0218 48.2482 55.8382 48.6411C55.6546 49.0341 55.3996 49.3335 55.0698 49.5394C54.7434 49.7406 54.3592 49.8435 53.924 49.8435Z" fill="#1F375F"/>
<path d="M57.0486 49.7356V48.8327L57.63 48.6783V43.2982L57.0486 43.1438V42.2362H57.63H59.4694C60.112 42.2362 60.6118 42.4093 60.9688 42.7508C61.3292 43.0923 61.506 43.607 61.506 44.29C61.506 44.6362 61.438 44.945 61.3054 45.221C61.1728 45.4923 60.979 45.6982 60.724 45.8339C60.9416 45.8994 61.1218 46.0163 61.268 46.1801C61.4142 46.3438 61.523 46.545 61.5944 46.7789C61.6658 47.0128 61.7032 47.2701 61.7032 47.5508C61.7032 48.2666 61.5298 48.8093 61.1864 49.1789C60.843 49.5485 60.3534 49.7309 59.7244 49.7309H57.0486V49.7356ZM58.7214 45.3801H59.5068C59.7992 45.3801 60.0236 45.2959 60.18 45.1321C60.3364 44.9684 60.4146 44.7251 60.4146 44.4116C60.4146 44.0654 60.3364 43.8081 60.1766 43.6444C60.0168 43.4807 59.7822 43.3964 59.4694 43.3964H58.7214V45.3801ZM58.7214 48.5847H59.7278C60.0168 48.5847 60.2378 48.4959 60.3908 48.3228C60.5438 48.1497 60.6186 47.8923 60.6186 47.5508C60.6186 47.3029 60.5914 47.097 60.5336 46.9286C60.4758 46.7602 60.3874 46.6339 60.2684 46.5497C60.1494 46.4654 59.9964 46.4187 59.8094 46.4187H58.7214V48.5847Z" fill="#1F375F"/>
<path d="M62.0194 49.7359V48.833L62.407 48.7581L64.1376 42.2411H65.2562L66.9766 48.7581L67.3642 48.833V49.7359H65.5078V48.833L65.8852 48.7394L65.6472 47.7102H63.733L63.495 48.7394L63.8724 48.833V49.7359H62.0194ZM63.9948 46.6061H65.3922L64.7564 44.0376L64.7054 43.8131H64.6816L64.6238 44.0564L63.9948 46.6061Z" fill="#1F375F"/>
<path d="M67.7314 49.7356V48.8327L68.3128 48.6783V43.2982L67.7314 43.1438V42.2362H69.9822V43.1438L69.4008 43.2982V48.6783L69.9822 48.8327V49.7356H67.7314Z" fill="#1F375F"/>
</svg>
