<svg width="170" height="62" viewBox="0 0 170 62" fill="none" xmlns="http://www.w3.org/2000/svg">
<g clip-path="url(#clip0_545_22)">
<path d="M151.728 51.3836C150.373 51.3836 149.825 49.7415 149.825 48.0733C149.825 46.1705 150.555 45.0497 151.572 45.0497C152.692 45.0497 153.162 45.962 153.162 47.5259V50.4453C152.927 50.9405 152.328 51.3836 151.728 51.3836ZM156.029 51.1751C155.508 51.1751 155.325 50.9144 155.325 50.2367V41.192H154.856L152.119 41.8697V42.4692L152.328 42.5213C152.953 42.6777 153.11 42.9384 153.11 43.4597V44.5805C152.719 44.3459 152.197 44.1634 151.52 44.1634C149.252 44.1634 147.505 45.8838 147.505 48.6728C147.505 50.7841 148.678 52.6348 150.946 52.6348C151.858 52.6348 152.666 52.0874 153.11 51.2012V52.6348H153.579L156.42 51.8789V51.1751H156.029ZM145.994 50.732V46.8743C145.994 45.18 145.107 44.1634 143.517 44.1634C142.553 44.1634 141.745 44.6587 140.963 45.8317V44.1634H140.494L137.757 44.8412V45.4407L137.965 45.4928C138.591 45.6231 138.747 45.9099 138.747 46.4312V50.732C138.747 51.3836 138.461 51.5661 137.731 51.7225V52.4263H141.953V51.7225C141.224 51.5661 140.937 51.3836 140.937 50.732V46.5615C141.562 45.8317 142.084 45.6231 142.553 45.6231C143.387 45.6231 143.778 46.1705 143.778 47.0828V50.732C143.778 51.3836 143.517 51.5661 142.918 51.7225V52.4263H147.01V51.7225C146.28 51.54 145.994 51.3576 145.994 50.732ZM132.309 51.3576C131.71 51.3576 131.24 50.8623 131.24 50.2107C131.24 49.2984 131.736 48.751 133.065 48.4121L133.717 48.2558V50.3149C133.404 51.0448 132.935 51.3576 132.309 51.3576ZM136.845 51.1751C136.063 51.1751 135.906 50.8884 135.906 50.1064V47.2131C135.906 45.3885 134.759 44.1634 132.622 44.1634C130.589 44.1634 129.103 45.2843 129.103 46.6397C129.103 46.9785 129.207 47.3174 129.416 47.6562L131.293 47.0307C131.11 46.7439 131.032 46.4312 131.032 46.1444C131.032 45.4667 131.449 44.9454 132.205 44.9454C133.143 44.9454 133.717 45.7535 133.717 47.0567V47.4999L132.857 47.6823C130.902 48.1254 128.973 48.6728 128.973 50.4453C128.973 51.7485 129.885 52.6348 131.214 52.6348C132.361 52.6348 133.117 52.1917 133.717 51.123V52.6348H134.186L137.027 51.8789V51.1751H136.845ZM127.252 41.1659H126.783L124.046 41.8436V42.4431L124.255 42.4953C124.88 42.6516 125.037 42.9123 125.037 43.4336V50.7059C125.037 51.3576 124.75 51.54 124.02 51.6964V52.4002H128.243V51.6964C127.513 51.54 127.226 51.3576 127.226 50.7059L127.252 41.1659ZM120.241 44.1634C118.26 44.1634 116.983 45.1279 116.983 46.6658C117.009 49.8197 121.727 48.7249 121.753 50.7059C121.753 51.4879 121.049 51.8789 120.397 51.8789C119.563 51.8789 118.807 51.2012 118.129 49.8458L116.644 51.2012C117.113 51.8267 118.547 52.6348 120.215 52.6348C122.248 52.6348 123.447 51.4358 123.473 50.1325C123.499 46.77 118.703 47.7605 118.703 45.9359C118.703 45.3364 119.328 44.9454 120.006 44.9454C120.84 44.9454 121.492 45.5449 122.039 46.77L123.369 45.2582C123.004 44.8412 122.039 44.1634 120.241 44.1634ZM114.897 50.732V46.8743C114.897 45.18 114.011 44.1634 112.421 44.1634C111.457 44.1634 110.649 44.6587 109.867 45.8317V44.1634H109.397L106.661 44.8412V45.4407L106.895 45.4928C107.521 45.6231 107.677 45.9099 107.677 46.4312V50.732C107.677 51.3836 107.39 51.5661 106.661 51.7225V52.4263H110.883V51.7225C110.127 51.5661 109.867 51.3836 109.867 50.732V46.5615C110.492 45.8317 111.014 45.6231 111.483 45.6231C112.317 45.6231 112.708 46.1705 112.708 47.0828V50.732C112.708 51.3836 112.447 51.5661 111.848 51.7225V52.4263H115.914V51.7225C115.184 51.54 114.897 51.3576 114.897 50.732ZM102.282 44.9715C103.22 44.9715 103.663 45.8838 103.741 47.3174H100.666C100.77 45.8316 101.369 44.9715 102.282 44.9715ZM102.568 44.1634C100.17 44.1634 98.5281 45.8838 98.5281 48.6207C98.5281 50.6799 99.8053 52.6608 102.334 52.6608C104.237 52.6608 105.488 51.4358 105.905 50.0282L105.357 49.7676C104.94 50.5495 104.054 51.0708 103.09 51.0708C101.708 51.0708 100.77 50.0022 100.639 48.1776H105.931C105.905 45.8577 104.888 44.1634 102.568 44.1634ZM93.9666 44.9715C94.905 44.9715 95.3481 45.8838 95.4263 47.3174H92.3506C92.4548 45.8316 93.0283 44.9715 93.9666 44.9715ZM94.2534 44.1634C91.8553 44.1634 90.2132 45.8838 90.2132 48.6207C90.2132 50.6799 91.4904 52.6608 94.0188 52.6608C95.9216 52.6608 97.1727 51.4358 97.5898 50.0282L97.0424 49.7676C96.6253 50.5495 95.7391 51.0708 94.7747 51.0708C93.3932 51.0708 92.4548 50.0022 92.3245 48.1776H97.6158C97.5898 45.8577 96.5732 44.1634 94.2534 44.1634ZM89.2488 51.1751C88.7014 51.1751 88.545 50.8884 88.545 50.2367V44.1634H88.0758L85.365 44.8412V45.4407L85.5735 45.4928C86.1991 45.6231 86.3815 45.9099 86.3815 46.4312V50.2628C85.756 51.0187 85.2347 51.2012 84.7394 51.2012C83.9053 51.2012 83.5143 50.6538 83.5143 49.7415V44.1634H83.0451L80.3083 44.8412V45.4407L80.5428 45.4928C81.1684 45.6231 81.3248 45.9099 81.3248 46.4312V49.95C81.3248 51.6443 82.211 52.6608 83.8011 52.6608C84.7655 52.6608 85.5735 52.1656 86.3555 50.9666V52.6348H86.8247L89.6397 51.8789V51.1751H89.2488ZM70.69 46.7961C70.664 44.3198 71.7066 42.4692 73.6094 42.4692C75.9292 42.4431 77.1022 44.9715 77.1283 47.4477C77.1543 49.8979 76.1378 51.7486 74.2089 51.7746C71.8891 51.8007 70.69 49.2202 70.69 46.7961ZM79.5524 46.9003C79.5524 44.1374 77.5714 41.6351 73.9743 41.6351C70.8204 41.6351 68.292 43.9028 68.292 47.3695C68.292 49.2984 69.2304 51.0969 71.055 52.0353C72.9317 54.7722 74.0786 55.893 76.633 55.9451L77.0761 54.0163C75.5122 54.2248 73.5312 53.5992 71.8369 52.3481C72.4625 52.5566 73.1402 52.6608 73.9222 52.6608C77.024 52.6348 79.5524 50.341 79.5524 46.9003ZM135.698 34.6234V30.7657C135.698 29.0715 134.811 28.0549 133.221 28.0549C132.257 28.0549 131.449 28.5501 130.667 29.7231V28.0549H130.198L127.461 28.7326V29.3321L127.669 29.3842C128.295 29.5406 128.451 29.8013 128.451 30.3226V34.6234C128.451 35.2751 128.165 35.4575 127.435 35.6139V36.3177H131.658V35.6139C130.928 35.4575 130.641 35.2751 130.641 34.6234V30.4529C131.267 29.7231 131.788 29.5146 132.257 29.5146C133.091 29.5146 133.482 30.0619 133.482 30.9742V34.6234C133.482 35.2751 133.221 35.4575 132.622 35.6139V36.3177H136.688V35.6139C135.984 35.4575 135.698 35.2751 135.698 34.6234ZM125.845 28.0028C124.854 28.081 123.942 28.7847 123.421 30.3747V28.0549H122.952L120.215 28.7326V29.3321L120.423 29.3842C121.049 29.5406 121.205 29.8013 121.205 30.3226V34.5974C121.205 35.2229 120.997 35.4315 120.189 35.5879V36.2916H124.75V35.5879C123.708 35.4315 123.395 35.1969 123.395 34.5974V31.1567C123.708 30.4269 124.307 29.9577 125.037 29.9056C125.532 29.8795 126.079 30.0619 126.418 30.4008L126.705 28.081C126.497 28.0288 126.184 28.0028 125.845 28.0028ZM115.862 28.889C116.8 28.889 117.243 29.8013 117.321 31.2349H114.246C114.35 29.7492 114.923 28.889 115.862 28.889ZM116.122 28.0549C113.724 28.0549 112.082 29.7752 112.082 32.5121C112.082 34.5713 113.359 36.5523 115.888 36.5523C117.791 36.5523 119.042 35.3272 119.459 33.9197L118.911 33.659C118.494 34.441 117.608 34.9623 116.644 34.9623C115.262 34.9623 114.324 33.8936 114.194 32.069H119.485C119.485 29.7752 118.442 28.0549 116.122 28.0549ZM110.544 34.6234V30.7657C110.544 29.0715 109.658 28.0549 108.068 28.0549C107.104 28.0549 106.296 28.5501 105.514 29.7231V25.0834H105.045L102.308 25.7611V26.3346L102.568 26.3867C103.142 26.517 103.324 26.8037 103.324 27.299V34.5974C103.324 35.249 103.037 35.4315 102.308 35.5879V36.2916H106.53V35.5879C105.774 35.4315 105.514 35.249 105.514 34.5974V30.4269C106.139 29.697 106.661 29.4885 107.13 29.4885C107.964 29.4885 108.355 30.0359 108.355 30.9482V34.5974C108.355 35.249 108.094 35.4315 107.495 35.5879V36.2916H111.561V35.5879C110.831 35.4575 110.544 35.2751 110.544 34.6234ZM101.395 35.0665C101.109 35.249 100.77 35.4054 100.301 35.4054C99.5186 35.4054 99.0234 34.9362 99.0234 34.0239V29.0975H101.369V28.3155H99.0234V25.9696L96.8339 26.8037V28.3155H95.5306V29.0975H96.8339V34.1543C96.8339 35.7443 97.694 36.6044 99.2319 36.6044C100.301 36.6044 101.135 35.9006 101.604 35.5357L101.395 35.0665ZM94.9832 35.0665C94.4358 35.0665 94.2794 34.7798 94.2794 34.1282V28.0549H93.8102L91.0994 28.7326V29.3321L91.3079 29.3842C91.9335 29.5406 92.116 29.8013 92.116 30.3226V34.1543C91.4904 34.9102 90.9691 35.0926 90.4739 35.0926C89.6398 35.0926 89.2488 34.5452 89.2488 33.6329V28.0549H88.7796L86.0427 28.7326V29.3321L86.2773 29.3842C86.9029 29.5406 87.0593 29.8013 87.0593 30.3226V33.8415C87.0593 35.5357 87.9455 36.5523 89.5355 36.5523C90.4999 36.5523 91.3079 36.057 92.0899 34.858V36.5262H92.5591L95.3742 35.7703V35.0665H94.9832ZM81.6897 35.6921C80.3865 35.6921 79.6045 33.8154 79.6045 31.678C79.6045 30.0359 80.1779 28.889 81.1945 28.889C82.4978 28.889 83.2797 30.7918 83.2797 32.877C83.2797 34.5452 82.7063 35.6921 81.6897 35.6921ZM81.377 36.5523C83.7229 36.5523 85.5214 34.7538 85.5214 32.1733C85.5214 29.8534 83.9835 28.081 81.4812 28.081C79.1353 28.081 77.3628 29.9056 77.3628 32.486C77.3368 34.7798 78.8486 36.5523 81.377 36.5523ZM70.0384 32.851L68.1877 34.832C69.2825 35.9267 70.7943 36.5262 72.5146 36.5262C74.8605 36.5262 76.4766 35.3011 76.4766 33.3202C76.4766 29.5146 70.6118 30.2705 70.6118 27.8203C70.6118 26.8819 71.3156 26.3606 72.2018 26.3606C73.1923 26.3606 73.87 27.1426 74.4174 28.8629L76.216 27.2208C75.825 26.4388 74.4696 25.5005 72.3843 25.5005C69.9602 25.5005 68.6048 26.7516 68.6048 28.4719C68.6048 32.3036 74.3392 31.3913 74.3392 33.9979C74.3392 35.0926 73.5573 35.6921 72.5407 35.6921C71.4199 35.6921 70.6379 34.7798 70.0384 32.851ZM151.806 8.97485C152.458 8.97485 152.875 9.44404 153.11 10.0175L153.761 9.02698C153.474 8.81846 152.875 8.53174 151.963 8.53174C150.503 8.53174 149.356 9.4701 149.356 11.4772V12.3113H148.053V12.7804H149.382V19.0883C149.382 19.7921 148.809 19.9485 148.235 20.0267V20.2352H152.041V20.0267C151.05 19.9224 150.399 19.8182 150.399 19.0101V12.7804H152.719V12.3113H150.399V11.0862C150.399 9.3919 151.024 8.97485 151.806 8.97485ZM144.039 19.9224C142.032 19.9224 141.406 17.3941 141.406 15.9604C141.406 14.0316 142.344 12.6501 143.752 12.6501C145.759 12.6501 146.385 15.1785 146.385 16.586C146.411 18.5149 145.446 19.9224 144.039 19.9224ZM143.856 20.4437C145.811 20.4437 147.479 18.7495 147.479 16.1168C147.479 13.7449 146.046 12.0767 143.961 12.0767C142.058 12.0767 140.363 13.797 140.363 16.4296C140.337 18.8016 141.771 20.4437 143.856 20.4437ZM131.449 23.2328V23.3891H132.413L136.662 13.1975C136.819 12.8326 137.053 12.6501 137.601 12.5458V12.3373H134.916V12.5198C135.958 12.7022 136.297 12.8326 135.984 13.5885L133.899 18.567L131.788 13.5885C131.475 12.9108 131.736 12.7022 132.804 12.5198V12.3113H129.572V12.5198C130.198 12.7022 130.354 12.8326 130.511 13.1454L133.43 19.9224L131.449 23.2328ZM128.816 19.3229C128.425 19.6096 128.113 19.766 127.617 19.766C126.835 19.766 126.262 19.4011 126.262 18.2282V12.7804H128.79V12.3113H126.262V10.1217L125.271 10.6691V12.3113H123.942V12.7804H125.271V18.15C125.271 19.74 125.923 20.4437 127.122 20.4437C127.956 20.4437 128.478 19.9224 128.947 19.5314L128.816 19.3229ZM122.509 19.0883V12.1027H122.3L120.345 12.7283V12.9368H120.475C121.283 12.9108 121.518 13.3017 121.518 13.9534V19.0623C121.518 19.766 120.945 19.9224 120.345 20.0006V20.2091H123.681V20.0006C123.082 19.9224 122.509 19.7921 122.509 19.0883ZM122.013 10.7994C122.456 10.7994 122.795 10.4606 122.795 9.99141C122.795 9.52223 122.456 9.18338 122.013 9.18338C121.544 9.18338 121.205 9.52223 121.205 9.99141C121.205 10.4606 121.544 10.7994 122.013 10.7994ZM116.487 12.1027C114.897 12.1027 113.881 12.9629 113.881 14.2922C113.907 16.7163 118.416 16.2472 118.442 18.4627C118.468 19.2447 117.791 20.0006 116.696 20.0006C115.758 20.0006 115.028 19.2968 114.767 18.176L113.594 18.8798C114.22 19.8964 115.367 20.4698 116.592 20.4698C118.312 20.4698 119.407 19.375 119.381 18.0457C119.328 15.2045 114.767 16.0386 114.767 13.9273C114.767 13.1193 115.419 12.5719 116.461 12.5719C117.348 12.5719 117.973 13.1714 118.26 14.188L119.381 13.4321C119.068 12.9108 118.312 12.1027 116.487 12.1027ZM112.082 12.1288C111.248 12.1549 110.492 12.8586 109.919 14.4486V12.1027H109.684L107.729 12.7283V12.9368H107.86C108.668 12.9108 108.902 13.3017 108.902 13.9534V18.9841C108.902 19.6096 108.642 19.8442 107.729 20.0006V20.2091H111.535V20.0006C110.31 19.8442 109.893 19.6096 109.893 18.9841V14.8918C110.362 13.7449 111.118 13.0932 111.978 13.0672C112.291 13.0411 112.63 13.1714 112.916 13.2757L113.047 12.1809C112.812 12.1288 112.499 12.1027 112.082 12.1288ZM103.846 12.598C105.253 12.598 105.748 13.797 105.853 15.3349H101.474C101.63 13.7709 102.334 12.598 103.846 12.598ZM104.106 12.1027C102.021 12.1027 100.457 13.7188 100.457 16.5078C100.457 18.6713 101.838 20.4698 103.872 20.4698C105.383 20.4698 106.504 19.4793 106.921 18.2282L106.739 18.15C106.191 18.8277 105.488 19.5054 104.315 19.5054C102.62 19.5054 101.474 18.0457 101.447 15.778H106.973C106.999 13.8752 106.009 12.1027 104.106 12.1027ZM100.301 12.3113H97.6158V12.5198C98.6585 12.7022 98.9973 12.8326 98.6845 13.5885L96.5993 18.8277L94.4619 13.5885C94.1752 12.9108 94.4098 12.7022 95.5045 12.5198V12.3113H92.2724V12.5198C92.898 12.6762 93.0804 12.8065 93.1847 13.1193L96.2344 20.4177H96.4429L99.3622 13.1193C99.4926 12.7544 99.7271 12.624 100.301 12.4937V12.3113ZM90.8648 19.0883V12.1027H90.6302L88.6753 12.7283V12.9368H88.8057C89.6137 12.9108 89.8483 13.3017 89.8483 13.9534V19.0623C89.8483 19.766 89.2748 19.9224 88.6753 20.0006V20.2091H92.0117V20.0006C91.4383 19.9224 90.8648 19.7921 90.8648 19.0883ZM90.3957 10.7994C90.8388 10.7994 91.1776 10.4606 91.1776 9.99141C91.1776 9.52223 90.8388 9.18338 90.3957 9.18338C89.9265 9.18338 89.5876 9.52223 89.5876 9.99141C89.5876 10.4606 89.9004 10.7994 90.3957 10.7994ZM86.5119 19.0883V14.7093C86.5119 12.9108 85.365 12.1027 84.192 12.1027C83.2537 12.1027 82.4456 12.6762 81.4812 13.9273V12.1027H81.2466L79.2917 12.7283V12.9368H79.422C80.2301 12.9108 80.4647 13.3017 80.4647 13.9534V19.0623C80.4647 19.766 79.8912 19.9224 79.2917 20.0006V20.2091H82.6281V20.0006C82.0286 19.8964 81.4551 19.766 81.4551 19.0623V14.3183C82.2892 13.3799 82.9148 13.015 83.775 13.015C84.7394 13.015 85.4953 13.5363 85.4953 14.8657V19.0883C85.4953 19.7921 84.9219 19.9485 84.3224 20.0267V20.2352H87.6588V20.0267C87.0853 19.9224 86.5119 19.7921 86.5119 19.0883ZM79.031 9.65256H75.6425V9.86108C76.6069 9.91322 77.0761 10.1217 77.0761 11.0862V16.2472C77.0761 18.5149 76.0596 19.8442 74.1568 19.8442C72.0715 19.8442 70.8464 18.3063 70.8464 16.3254V11.1122C70.8464 10.1478 71.3156 9.91322 72.254 9.88715V9.65256H68.3181V9.86108C69.2564 9.91322 69.7517 10.1217 69.7517 11.0862V16.56C69.7517 19.1144 71.3678 20.4437 73.8179 20.4437C76.2681 20.4437 77.6496 18.958 77.6496 16.4557V11.1122C77.6496 10.1478 78.0927 9.91322 79.0571 9.88715L79.031 9.65256Z" fill="#3C2D4D"/>
<path d="M14.988 47.0565C11.9904 48.5943 8.57583 49.663 4.87451 50.1844C7.27255 53.5989 10.4786 56.4401 14.206 58.395C14.4667 58.2647 26.5872 53.0516 26.5872 41.5827V61.4708C31.0444 61.4708 35.267 60.376 38.9683 58.4211C38.7077 58.2908 38.447 58.1604 38.1864 58.0301C33.5467 55.6842 26.5872 50.2626 26.5872 41.5827V30.6091C26.5611 37.3079 22.0778 43.4334 14.988 47.0565Z" fill="#FFB448"/>
<path d="M26.561 19.6614V8.71387C26.561 17.498 19.4451 22.8675 14.9618 25.1613C10.7131 27.3247 5.57816 28.6019 0.0522461 28.6019V34.962C0.0522461 36.5259 0.182574 38.0638 0.44323 39.5495C5.81275 39.4974 10.8173 38.2202 14.9618 36.1088C18.7152 34.18 26.561 28.9147 26.561 19.6614V30.609C26.561 37.6728 31.5135 43.6418 38.1602 47.0564C41.1577 48.5943 44.5723 49.663 48.2737 50.1843C50.4632 47.0564 52.001 43.4593 52.6787 39.5495C47.3092 39.4974 42.3046 38.2202 38.1602 36.1088C34.4067 34.18 26.561 28.9147 26.561 19.6614Z" fill="#FFB448"/>
<path d="M26.3003 0.529297C16.7342 0.555363 7.7416 2.56242 0.0522461 5.97701V17.6283C5.57816 17.6283 10.7131 16.3511 14.9618 14.1877C24.2151 9.46981 25.9615 2.45815 26.3003 0.529297Z" fill="#FFB448"/>
<path d="M26.561 0.529297V8.7139C26.561 17.498 33.6509 22.8415 38.1602 25.1613C42.4089 27.3248 47.5439 28.602 53.0698 28.602V5.97701C45.3283 2.51028 36.2574 0.529297 26.561 0.529297Z" fill="#FFB448"/>
</g>
<defs>
<clipPath id="clip0_545_22">
<rect width="170" height="60.9414" fill="white" transform="translate(0 0.529297)"/>
</clipPath>
</defs>
</svg>
