<svg width="84" height="84" viewBox="0 0 84 84" fill="none" xmlns="http://www.w3.org/2000/svg">
<g clip-path="url(#clip0_545_75)">
<path fill-rule="evenodd" clip-rule="evenodd" d="M0 84.0001H84V6.10352e-05H0V84.0001Z" fill="#E30F18"/>
<path fill-rule="evenodd" clip-rule="evenodd" d="M8.51099 49.2708V39.7479H13.1414V49.0694C13.1414 51.3325 13.7061 52.4303 15.6716 52.4303C17.592 52.4303 18.201 51.3992 18.201 49.002V39.7479H22.8768V49.2037C22.8768 53.8645 20.1211 56.0379 15.6716 56.0379C11.1087 56.0379 8.51099 53.7524 8.51099 49.2708Z" fill="#FEFEFE"/>
<path fill-rule="evenodd" clip-rule="evenodd" d="M23.5775 39.7477H28.2533L30.3314 49.7414L32.4995 39.7477H36.6105L38.9599 49.8308L41.1509 39.7477H45.4424L41.6706 55.769H36.8368L34.3516 45.5959L31.8443 55.769H27.3272L23.5775 39.7477Z" fill="#FEFEFE"/>
<path fill-rule="evenodd" clip-rule="evenodd" d="M15.2846 71.5093C16.7529 71.5093 17.4302 70.8371 17.4302 69.6496V69.5596C17.4302 68.3502 16.7757 67.7226 15.1491 67.7226H13.3649V71.5093H15.2846ZM15.1266 64.9215C16.5724 64.9215 17.1142 64.4287 17.1142 63.286V63.1962C17.1142 62.0985 16.527 61.6053 15.1266 61.6053H13.3649V64.9215H15.1266ZM8.84705 58.5579H16.0527C19.8699 58.5579 21.4962 60.2612 21.4962 62.7481V62.8378C21.4962 64.6305 20.5705 65.8179 18.7634 66.2884C20.751 66.6245 21.9934 67.8123 21.9934 70.0304V70.1201C21.9934 72.9882 20.1187 74.5795 16.1206 74.5795H8.84705V58.5579Z" fill="#FEFEFE"/>
<path fill-rule="evenodd" clip-rule="evenodd" d="M23.2312 62.8602H27.2744V65.1907C28.0199 63.4427 29.2623 62.6808 31.092 62.7035V66.4452C28.6297 66.3782 27.2744 67.1401 27.2744 69.0221V74.5792H23.2312V62.8602Z" fill="#FEFEFE"/>
<mask id="mask0_545_75" style="mask-type:luminance" maskUnits="userSpaceOnUse" x="0" y="-1" width="85" height="85">
<path d="M0 83.3209H84.5463V-0.549011H0V83.3209Z" fill="white"/>
</mask>
<g mask="url(#mask0_545_75)">
<path fill-rule="evenodd" clip-rule="evenodd" d="M32.3308 74.579H36.374V62.86H32.3308V74.579ZM32.1274 59.6782C32.1274 58.4911 33.0764 57.5944 34.3413 57.5944C35.6059 57.5944 36.5773 58.4911 36.5773 59.6782C36.5773 60.8656 35.6059 61.74 34.3413 61.74C33.0764 61.74 32.1274 60.8656 32.1274 59.6782Z" fill="#FEFEFE"/>
</g>
<mask id="mask1_545_75" style="mask-type:luminance" maskUnits="userSpaceOnUse" x="0" y="-1" width="85" height="85">
<path d="M0 83.3209H84.5463V-0.549011H0V83.3209Z" fill="white"/>
</mask>
<g mask="url(#mask1_545_75)">
<path fill-rule="evenodd" clip-rule="evenodd" d="M37.6333 70.8596H41.3609C41.4956 71.7113 41.8798 72.1818 43.0318 72.1818C44.0258 72.1818 44.4776 71.8006 44.4776 71.2185C44.4776 70.6583 43.9132 70.3895 42.2862 70.1651C39.1241 69.7619 37.7916 68.8432 37.7916 66.401C37.7916 63.8014 40.1181 62.5466 42.8509 62.5466C45.765 62.5466 47.7977 63.5326 48.0689 66.3333H44.4097C44.2517 65.549 43.8228 65.1682 42.8963 65.1682C42.0153 65.1682 41.5639 65.549 41.5639 66.0872C41.5639 66.6474 42.1057 66.8715 43.5515 67.0506C46.8265 67.4537 48.4078 68.3057 48.4078 70.815C48.4078 73.5933 46.3301 74.8481 43.0547 74.8481C39.6888 74.8481 37.7237 73.4589 37.6333 70.8596Z" fill="#FEFEFE"/>
</g>
<mask id="mask2_545_75" style="mask-type:luminance" maskUnits="userSpaceOnUse" x="0" y="-1" width="85" height="85">
<path d="M0 83.3209H84.5463V-0.549011H0V83.3209Z" fill="white"/>
</mask>
<g mask="url(#mask2_545_75)">
<path fill-rule="evenodd" clip-rule="evenodd" d="M50.3197 70.8147V65.5937H48.8972V62.8601H50.3197V60.4178H54.3633V62.8601H56.6897V65.5937H54.3633V70.4342C54.3633 71.2852 54.7922 71.6663 55.5603 71.6663C56.0117 71.6663 56.3512 71.599 56.7122 71.4646V74.5124C56.1929 74.6464 55.4244 74.8485 54.4766 74.8485C51.8105 74.8485 50.3197 73.571 50.3197 70.8147Z" fill="#FEFEFE"/>
</g>
<mask id="mask3_545_75" style="mask-type:luminance" maskUnits="userSpaceOnUse" x="0" y="-1" width="85" height="85">
<path d="M0 83.3209H84.5463V-0.549011H0V83.3209Z" fill="white"/>
</mask>
<g mask="url(#mask3_545_75)">
<path fill-rule="evenodd" clip-rule="evenodd" d="M66.1949 68.798V68.6189C66.1949 66.6468 65.4039 65.5491 63.8681 65.5491C62.3547 65.5491 61.5191 66.6018 61.5191 68.5743V68.7533C61.5191 70.7697 62.3093 71.8678 63.8681 71.8678C65.3814 71.8678 66.1949 70.7477 66.1949 68.798ZM57.3855 68.8653V68.6859C57.3855 64.9215 60.2091 62.5463 63.8681 62.5463C67.5048 62.5463 70.3056 64.8545 70.3056 68.5743V68.7533C70.3056 72.5627 67.4823 74.8479 63.8455 74.8479C60.2091 74.8479 57.3855 72.6524 57.3855 68.8653Z" fill="#FEFEFE"/>
</g>
<mask id="mask4_545_75" style="mask-type:luminance" maskUnits="userSpaceOnUse" x="0" y="-1" width="85" height="85">
<path d="M0 83.3209H84.5463V-0.549011H0V83.3209Z" fill="white"/>
</mask>
<g mask="url(#mask4_545_75)">
<path fill-rule="evenodd" clip-rule="evenodd" d="M71.6782 74.5795H75.6989V58.5549H71.6782V74.5795Z" fill="#FEFEFE"/>
</g>
<mask id="mask5_545_75" style="mask-type:luminance" maskUnits="userSpaceOnUse" x="0" y="-1" width="85" height="85">
<path d="M0 83.3209H84.5463V-0.549011H0V83.3209Z" fill="white"/>
</mask>
<g mask="url(#mask5_545_75)">
<path fill-rule="evenodd" clip-rule="evenodd" d="M50.7404 52.2287V49.3152H54.9017H55.9584V46.0441H54.9017H50.7404V43.288H57.2909V39.7477H46.1329V55.7686H57.6526V52.2287H50.7404Z" fill="#FEFEFE"/>
</g>
</g>
<defs>
<clipPath id="clip0_545_75">
<rect width="84" height="84" fill="white"/>
</clipPath>
</defs>
</svg>
